<svg xmlns="http://www.w3.org/2000/svg" viewBox="0 0 174.53 311.67"><defs><style>.a{fill:#050403;}.b{fill:#fe7002;}.c{fill:#e9a840;}.d{fill:#839998;}.e{fill:#74844a;}.f{fill:#d17d2c;}.g{fill:#e8a73f;}.h{fill:#1e292a;}.i{fill:#cfa736;}.j{fill:#e6a53e;}.k{fill:#e7cc5b;}.l{fill:#fdef40;}.m{fill:#e6cb5b;}.n{fill:#e7cf59;}.o{fill:#98a36f;}.p{fill:#cc7c2d;}.q{fill:#ce7c2b;}.r{fill:#cea636;}.s{fill:#313c40;}.t{fill:#040403;}.u{fill:#fefefe;}.v{fill:#060605;}.w{fill:#698180;}.x{fill:#d3feec;}.y{fill:#ccf4e4;}.z{fill:#d2fae8;}.aa{fill:#daa042;}.ab{fill:#9ba671;}.ac{fill:#ecf4d0;}</style></defs><path class="a" d="M73.91,206.7a19.78,19.78,0,0,1-3.57-7.11c-.69-3.2.47-6.19,3-7.43.72-.35,1.51-.58,2.44-.93-1.25-1.37-2.27-2.65-3.45-3.75-3.26-3-4-6.83-3.49-11.06A132.83,132.83,0,0,1,76.34,144c2.12-5.63,4.37-11.21,6.63-16.78a31.76,31.76,0,0,1,2.15-4.13,1.26,1.26,0,0,0,0-1.48,62.5,62.5,0,0,1-6.63-19,61.71,61.71,0,0,1,121.4-22.17,60,60,0,0,1,.11,22.4,1.63,1.63,0,0,0,.82,2c5,3.12,9.13,7.23,13.52,11.06a6.16,6.16,0,0,1,1,1,6.53,6.53,0,0,0,4.67,2.76,4.32,4.32,0,0,1,3.42,3,45.32,45.32,0,0,1,2.54,11.78,55.26,55.26,0,0,1-.4,16.59,20.7,20.7,0,0,1-3.1,8,7.51,7.51,0,0,1-2.31,2.18,9.23,9.23,0,0,1-2.81.51c-.17,3.24-2.23,5.87-5.3,8.18,1.73,2.62,3.45,5.17,5.09,7.77a7.82,7.82,0,0,1,1.09,2.6c1,5.13-3.57,10.62-8.8,10.56a6,6,0,0,1-5.19-2.94c-1.48-2.26-2.82-4.61-4.26-7a15.1,15.1,0,0,0-1.42,7.76,87.85,87.85,0,0,1-.79,28.39c-1.58,7.56-4.26,14.63-9.43,20.54-3.77,4.29-8.13,7.77-13.6,9.37.18,2.72.51,5.35.49,8a14.07,14.07,0,0,1-14.21,13.63,4.29,4.29,0,0,1-4-2.34,56.34,56.34,0,0,1-4-9.54c-.64-2.34-.23-5-.23-7.49s.17-5,0-7.55a10.55,10.55,0,0,0-1.16-3c-9.76,9.17-15.16,20.61-19.81,32.48a140.35,140.35,0,0,0-9,36.38c-.81,7.61-1,15.22.79,22.76a27.24,27.24,0,0,0,3.84,8.57,8.59,8.59,0,0,1,.51,1.11l-.32.34a31.61,31.61,0,0,1-2.92-2c-4-3.51-6.38-8.11-8.3-13A77.44,77.44,0,0,1,112.1,308a8.59,8.59,0,0,0-1.37,1.24c-1.19,1.64-2.28,3.36-3.47,5a5.42,5.42,0,0,1-1.23.9c-.18-.44-.52-.89-.49-1.32a16.39,16.39,0,0,1,.51-3.77c1.28-4.18,2.72-8.31,4-12.49a18.9,18.9,0,0,0,.85-4.27c.14-2.14,0-4.3,0-6.53A17.38,17.38,0,0,0,105,289.9c-.13.09-.23.25-.37.29-.53.17-1.06.31-1.59.46,0-.59-.33-1.32-.09-1.75,2.64-4.68,5.35-9.32,8-14,.28-.48.6-.94.9-1.4l-.3-.22a14.62,14.62,0,0,1-7.9.26c-5-1.14-7.56-4.56-8.49-9.28a30.26,30.26,0,0,1-.52-7.83c.37-5.4.94-10.8,1.71-16.15.29-2-.64-3.5-1.2-5.18L93,224.23c-.1-2.09-.21-4.18-.32-6.34-4.3-.58-8-2.47-11.62-4.7Zm58.47-4.26-.61.07a8.73,8.73,0,0,1-1.61.43c-.29,0-.61-.22-.92-.35.14-.33.2-.78.45-1a6.65,6.65,0,0,1,1.41-.63c3-1.3,6.24-2.38,7.08-6.18l.08-.41-.29.19a25.82,25.82,0,0,1-2.32,1.24,33.76,33.76,0,0,1-3.7,1.3c-.26.07-.65-.29-1-.45a6.79,6.79,0,0,1,.59-1c.13-.16.44-.18.66-.26a21.17,21.17,0,0,0,6.72-3.82,3.27,3.27,0,0,0,.91-3.9,7.64,7.64,0,0,1-.83.47c-2.62,1-5.23,2.1-7.89,3-.41.15-1.35-.11-1.47-.41-.34-.86.51-1,1.1-1.19.86-.3,1.75-.55,2.61-.87a23.78,23.78,0,0,0,8.3-4.85,1.24,1.24,0,0,0,.16-2,25.34,25.34,0,0,0-2.72-2.85,13.4,13.4,0,0,0-2.88-1.24,11.18,11.18,0,0,0,.16,2.28c.39,1.24.22,1.65-1,1.89l-1.17.21c-2.79.44-5.59.92-8.39,1.27a3.91,3.91,0,0,1-2-.51,5.8,5.8,0,0,1-1.3-1.09l-2.44-2.23c-.1-.69-.19-1.36.66-1.72a.7.7,0,0,0,.27-.57c-.1-1.3-.24-2.58-.36-3.75-2.13.51-4.13,1-6.14,1.49a1.44,1.44,0,0,0-.82.39c-1.67,2.43-3.47,4.82-3.37,8-.56,3.62.59,7,1.53,10.38a14.55,14.55,0,0,0,5.45,8c1.6,1.19,3.14,2.47,4.79,3.59a3,3,0,0,0,2.07.52,21.53,21.53,0,0,0,7.78-3.26l.41-.31.17-.09-.14-.06Zm-.51,14.38.24.24c.31.35.6.92,1,.07a3.73,3.73,0,0,1,.68.38c.84.78,1.59,1.44,2.95,1.06a7.83,7.83,0,0,0,5.64-5.81,4.87,4.87,0,0,0-1.68-5.09l-.4-.36L140,207h0l-1.67-1.7-2.9-2.43A30.82,30.82,0,0,1,125.18,208a4.31,4.31,0,0,1-4.44-1,3.08,3.08,0,0,0-.27-.24l-3.71-2.63a.7.7,0,0,0,.22.69q5.85,4.71,11.71,9.39c.95.76,2,1.43,2.95,2.15h0Zm65.6-94.4,3.13-2.76c-1.8.25-2.93,1-3.28,2.64l-.15.34ZM74.09,194.51c-1.52.64-1.56,2-1.62,3.33a20.7,20.7,0,0,0,1.41,4.5c3.59,6.2,9.12,10.09,15.76,12.49a22.63,22.63,0,0,0,3,.64l.19-.54a4.3,4.3,0,0,0-.93-.52,29.05,29.05,0,0,1-15.48-10.59c-1.29-1.72-1.9-3.95-2.82-5.95l.48-3.36.18-.26-.09-.05Zm38.13,81.79-6.59,10.54.24.09,5.4-2.41.94-8.23.09,0a.11.11,0,0,0,0-.06Zm67.4-141h0l5.06-5.38,3.85-5.12,4.48-8a49.54,49.54,0,0,0,4.35-13.41,5.44,5.44,0,0,0,.19-.57,60,60,0,0,0,.07-21,59.2,59.2,0,0,0-71.06-47.58c-38,8.37-57.81,50.67-39.84,85.17.37.69.84,1.34,1.26,2,1.19,1.92,2.33,3.88,3.6,5.74A32.8,32.8,0,0,0,94,130a1.38,1.38,0,0,0,.18.54,56.18,56.18,0,0,0,12.44,11l9.41,5.06a55.53,55.53,0,0,0,19.07,4.65,58.6,58.6,0,0,0,29.64-5.68,53.78,53.78,0,0,0,14.61-10.06ZM135,173.16c-1.87,2.57-4.43,3.34-7.46,2.91a7.63,7.63,0,0,1-4.83-2.5,21.32,21.32,0,0,1,.43,4.18c-.19,2.06.8,3,2.58,3.4.45.1.92.13,1.38.19,1.92-.26,3.84-.49,5.75-.79,1.71-.28,1.69-.32,1.49-2.11a3.27,3.27,0,0,1,.1-.81c.18-1.49.37-3,.56-4.46l.18-.26-.09-.07Zm66.66-53.52a4.16,4.16,0,0,1,.94.09c3.81,1.36,7.66,2.59,11.38,4.15a70.23,70.23,0,0,1,6.85,3.75l.22.21.26.27a3.72,3.72,0,0,1,.44,3.6,42.38,42.38,0,0,0-19.6-11.28l-7,7.16a15.78,15.78,0,0,0-3.27,5l2.81-1.33c2.35,0,4.56-.15,6.36-2.09,1.34-1.46,3.09-1.36,4.79-.33,4.82,2.89,9.32,6.13,12.08,11.24l.23.5h0a3.55,3.55,0,0,0,.09.47,19.74,19.74,0,0,1,1.18,11.24c-.48,2.37-.93,4.75-1.41,7.2a4.54,4.54,0,0,0,2.64-2.65c2.48-4.9,3.08-10.16,3-15.56a72.14,72.14,0,0,0-1.85-16.49c-.37-1.64-.82-2.83-2.74-2.84a5.41,5.41,0,0,1-1.38-.36l-2.53-1.91a10.74,10.74,0,0,0-.94-1.07q-6.34-5.46-12.71-10.89c-.65-.55-1.37-1-1.92-1.41l-4,11.23c-1.17,2.17-2.3,4.36-3.5,6.52-.93,1.65-.87,2.34.51,3.76a22.44,22.44,0,0,0,4.47-7.38c1.42-1.53,3.35-1.7,5.23-2,2.77.06,5.57-.17,8.25.88a1,1,0,0,1-.7.33c-.83-.08-1.65-.32-2.47-.32-1.93,0-3.86.08-5.79.13l-.82.06v.12ZM167.55,147l-12.65,4.83-1.7.42-3.81.75c-.48,0-1,0-1.43.11a56.25,56.25,0,0,1-19.37-.38c-4.07-.84-8-2.19-12-3.32l-1.89-.76c-.2-.12-.39-.27-.6-.37a62.05,62.05,0,0,1-19.71-14,1.7,1.7,0,0,0-2.66,0c-.84,1-1.52,2.22-2.27,3.34a4.14,4.14,0,0,0-.37.46,49.63,49.63,0,0,0-6.26,23.2c0,2.36-.09,4.71-.13,7.06-.29.86-.57,1.72-.87,2.57-.41,1.15-.84,2.3-1.26,3.45a2.79,2.79,0,0,0,0,3.41c.7,1.11,1.26,2.32,2,3.43a81.57,81.57,0,0,0,15.2,17.33,7.22,7.22,0,0,0,2.92,1.48c3.88,1,7.74.27,11.37-.28-1-5.06-2-10.05-3.08-15a8.83,8.83,0,0,1,.61-5.82c.59-1.22,1.3-2.37,2-3.56a11.43,11.43,0,0,1,1.14-1.67,2.3,2.3,0,0,1,1.27-.66c1-.15,1.94-.16,2.91-.23-.44-3.39-.42-3.42-2.24-4.84a27.86,27.86,0,0,0-16.28-5.79,1.54,1.54,0,0,0-.88.31,55.63,55.63,0,0,0-4.87,3.6c-2.39,2.12-4.61,4.43-6.93,6.62a3.66,3.66,0,0,1-1.21.49c-.14-.42-.47-.89-.38-1.26a4.74,4.74,0,0,1,.94-2.13c1.85-2,3.82-3.8,5.74-5.69l.26-.23h0L94,162.24l.21.38a5.22,5.22,0,0,1-.7.54,28,28,0,0,0-7,5.68,5.39,5.39,0,0,0-1.83,3.63c.27-.22.43-.34.56-.47,3.94-3.95,7.77-8,12.73-10.77a3.51,3.51,0,0,1,1.49-.52c1.32,0,2.64.13,4,.21a30.08,30.08,0,0,0-3.82-1.61,3.9,3.9,0,0,0-3,0c-2.61,1-5.21,2.12-7.81,3.18-.37.16-.74.3-1.12.44l-.16-.31a6.68,6.68,0,0,1,1.1-.75c2.58-1.11,5.19-2.17,7.77-3.28a3.92,3.92,0,0,1,3.18-.05l12.63,5.61,1.47.87c.44-1,.44-1,1-.68l-.08.45c.09.36.07.82.29,1,.92.9,1.92,1.72,2.89,2.56l1.13,3.6a2.45,2.45,0,0,0,1.87-1.86,8,8,0,0,1,6.79-6,8.28,8.28,0,0,1,8.62,3.18,5.25,5.25,0,0,1,1,4.84,36.78,36.78,0,0,0-.7,4.18c4-.21,5.63,2.72,7.45,5.34.14.2.1.53.14.8.21,1.5-.69,2.44-1.65,3.39a1.8,1.8,0,0,0-.43,1.27,9.17,9.17,0,0,1-.8,5.35,50.89,50.89,0,0,0-2,4.8c-.05.12.09.32.06.46a8.8,8.8,0,0,1-.58,2.07,9.82,9.82,0,0,1-1.45,1.67l1.94,1.68c1.83,1.91,4,3.54,5.25,6.14,3.09-.23,6.21-.36,9.29-.72,13-1.55,24.53-6.68,35-14.45,3.06-2.27,5.87-4.68,7.35-8.42,1.73-4.38,2.79-8.79,2.24-13.51-.23-.66-.26-1.65-.72-1.92-2.51-1.49-3.14-3.74-3.37-6.46a60.28,60.28,0,0,0-1.43-7.2l-1,.32c-4,1.23-7.17-.38-8.49-4.33a14,14,0,0,1-.58-6.85,3,3,0,0,0,0-1c-.25-1.44.15-2,1.54-2.38a27.22,27.22,0,0,0,3.08-.91c.24-.08.44-.53.5-.83.25-1.43.16-3,.72-4.28a18.92,18.92,0,0,0,1.57-3.91,2.8,2.8,0,0,1,.44-1.1,2.35,2.35,0,0,0,0-3.13,3.14,3.14,0,0,1-.32-.57l-8.9,9.8a37.39,37.39,0,0,1-3,2.47C174.72,142.34,171.13,144.65,167.55,147Zm46.56,18.41-.18-.71c-6.59,4.12-12.45,3.05-17.82-2.35a31.63,31.63,0,0,0,.34,3.47,3.18,3.18,0,0,0,1,1.83,7,7,0,0,0,2.67,1.24c2.49.52,5,.89,7.53,1.28a1.42,1.42,0,0,0,1-.26,31.12,31.12,0,0,0,5.32-5.06l0,.17a.18.18,0,0,0,.1,0,.22.22,0,0,0,.06-.07S214,164.87,214.11,165.4ZM205,184.92c.07.73.1,1.49,1.19,1.21l.24.45c-.33.25-.77.5,0,.75,1.24,1.61,3.59,1.69,5.46.89,3.33-1.43,5.39-5.9,3.46-9.05-1.33-2.16-2.44-4.46-3.65-6.71l-.94-1.5a5.1,5.1,0,0,0-.74.3,5.53,5.53,0,0,1-4.32.75c-1.75-.37-3.57-.44-5.44-.65-.06,3.35-.65,6.74,2,9.48a5.59,5.59,0,0,1,.57.91ZM193.73,142c-2.12-.11-3.1-.59-3.18-1.28a21,21,0,0,0,4,.25,5.43,5.43,0,0,0,4.33-3,4.65,4.65,0,0,0,.33-3.51c-.55-1.12-2.16-1.23-3.46-1a9.66,9.66,0,0,0-4.89,2.86,3,3,0,0,0-1,2.8,30.22,30.22,0,0,0,.76,3.52c.47,1.52,1.16,3,1.63,4.5.95,3.08,1.8,6.19,2.72,9.29.19.66.29,1.57,1.38.92l3.07-.72-3.29-1c-.51-.83-1.07-1.63-1.51-2.5-.35-.7-.1-1.24.75-1.36a1.8,1.8,0,0,0,.49-.32,30,30,0,0,0,5.22-9.73,4.8,4.8,0,0,0,0-2.2,29.33,29.33,0,0,0-.79-2.87,17.78,17.78,0,0,1-.88,1.86C198.18,140.66,196,141.47,193.73,142ZM156,258.66c.83,1.94,1.62,3.9,2.5,5.81a2.81,2.81,0,0,0,2.65,1.76,11.69,11.69,0,0,0,3.4-.4,10.82,10.82,0,0,0,8.36-9.18l-.16-9.29c-6.73.77-12.64-.43-17.87-4.64-.19,3.5-.18,6.84-.2,10.19A12.32,12.32,0,0,0,156,258.66Zm-77.15-64.4a10.54,10.54,0,0,0-1.32-1.35,1.06,1.06,0,0,0-1,0,5.19,5.19,0,0,0-2.23,4.72c.13.53.23,1.08.4,1.61a18.34,18.34,0,0,0,5.81,8.14,28.88,28.88,0,0,0,10.71,6.09,13,13,0,0,0,1.38.26c.29-3,.57-5.88.82-8.44a34.83,34.83,0,0,1-3.3-2C86.39,200.29,82.65,197.26,78.89,194.26Zm36.66,68.62c.26-2.58.52-5.17.79-7.83-9.07-.32-14.28-5.91-18.46-13.13-.43,5.72-.8,11.36-.88,17a14.69,14.69,0,0,0,2.81,9.47c1.32,1.71,2.76,3.34,5.22,3.29a6.19,6.19,0,0,0,.94.17c2.68,0,5.41.24,7.17-2.44A15.71,15.71,0,0,0,115.55,262.88Zm95.89-115.95a1.29,1.29,0,0,0-.16.17c-2.25,3.49-3.35,7.91-8.06,9.36a14.29,14.29,0,0,0-3.33,2.14,25.63,25.63,0,0,0,9.32-.58c2.1-.48,3.31-2.21,5-3.3,2.26-1.43,3.76-3.31,3.6-6.14,0-.71-.23-1.41-.28-2.12a13.59,13.59,0,0,0-2.72-7.18c-2.86-3.92-6.85-6.53-10.9-9-.29-.18-.87.12-1.32.19l-1.91,1.47,1.59,3.47c.08.18.15.51.24.52,1.38.1,1.08,1.22,1.28,2v.48l-.12,1.18c-.27,1.17-.53,2.35-.8,3.52-1.46,2.72-2.9,5.46-4.42,8.16a22,22,0,0,1-1.83,2.39,10.74,10.74,0,0,0,2.09.73c1,.12,2,0,3,.09a4.34,4.34,0,0,0,4.53-2.43,31.44,31.44,0,0,0,5.4-10.53c.11-.38.63-.65,1-1a5.54,5.54,0,0,1,.65,1.22,2,2,0,0,1-.2,1C212.48,144.19,212,145.55,211.44,146.93Zm-16.73,44.71h0c-3.25,2.5-6.39,5.15-9.77,7.46a69.75,69.75,0,0,1-34.37,12c-2,.16-4,.27-5.87.39-.45,1.47-.86,2.78-1.27,4.1-.39.56-.74,1.14-1.16,1.66-2.61,3.24-6.55,4.27-9.86,2.52a18.74,18.74,0,0,1-2.19-1.62,6.5,6.5,0,0,0-.57-.6q-6.9-5.47-13.82-10.92a6.39,6.39,0,0,0-1.16-.61l-6.94-3.23a2.59,2.59,0,0,0-1.11-.36c-3.45.12-6.86,0-10-1.6a.57.57,0,0,0-.12.18c-1.55,8.3-2.24,16.62-1,25,1,6.71,3,13.11,6.93,18.7,4.37,6.18,10.13,9.51,18,8a21.23,21.23,0,0,0,11.48-6A32.31,32.31,0,0,0,140,235.67a4.71,4.71,0,0,1,3.16-2.88,21.71,21.71,0,0,1,2.78-.69c2.44-.48,4.92-.83,7.33-1.44a44.65,44.65,0,0,0,5-1.89c-.65,1.34-1.9,1.27-2.67,1.88l-5.72,1.77c1.1,1.7,2,3.34,3.15,4.82,4.52,5.93,10.37,9.16,18,8.28,6.33-.74,11.08-4.37,15.14-9A33.56,33.56,0,0,0,193,225.29c4.31-11.08,4.78-22.6,3.92-34.27,0-.61-.13-1.21-.22-2.07l-1.79,2.43ZM138,253.05c3.49-5.74,7.14-11.35,12.39-15.76-.14-.26-.27-.56-.44-.82-.63-.9-1.11-2.28-2-2.57a5.46,5.46,0,0,0-3.47.52,4.48,4.48,0,0,0-2.25,2,39.13,39.13,0,0,1-5.6,8.75c-4.34,5.33-9.65,9.08-16.66,9.83-1.45.15-1.77.87-1.88,2a59.65,59.65,0,0,1-.65,6.42c-.57,2.89-1.46,5.71-2.18,8.57a89,89,0,0,0-2.28,26.38,86.59,86.59,0,0,0,5,25.4c1,2.63,2.26,5.13,3.41,7.7l.44-.16c-.22-1-.43-2.05-.64-3.08-.27-4.22-.83-8.44-.73-12.65a115.89,115.89,0,0,1,1.32-14.52A140.4,140.4,0,0,1,138,253.05ZM86.63,124.38a21,21,0,0,0-1.1,2c-3.9,9.33-7.9,18.64-10.5,28.44-1.13,4.26-2,8.58-2.82,12.92-.66,3.79-1.08,7.62-1.37,11.46-.12,1.51-.14,3.17,1.1,4.49,1.77,1.89,3.33,4,5.17,5.79a123,123,0,0,0,14.42,12.14c2.31,1.66,2.17,1.64,3-1a2.24,2.24,0,0,0-.78-2.64c-2.92-3-5.87-6.08-8.63-9.28a55,55,0,0,1-7.68-12,17,17,0,0,1-1.63-5.18c-.4-3.08,1.23-5.49,3.46-7.37a4,4,0,0,0,1.49-3.39,41.74,41.74,0,0,1,2-12.56c1.84-6.2,4.08-12.22,8.89-16.81Zm42.55,50.93c2.79.49,4.46-1.71,6.2-3.76a.57.57,0,0,0,.07-.46c-.49-1.52-1-3-2.44-4-2.48-1.64-6.73-1.33-8.7.91a8.46,8.46,0,0,0-1.68,3.49c-.23,1,.83,1.59,1.53,2.23A6.47,6.47,0,0,0,129.18,175.31Zm67.16-15.37a8.18,8.18,0,0,1,1.49,1c.65.7,1.06,1.77,1.84,2.18,1.88,1,3.92,1.74,5.9,2.57a1.21,1.21,0,0,0,.7.06c2.71-.79,5.49-1.44,7.83-3.14.35-.25.81-.54.91-.9.56-2,1-4,1.58-6.2l-2.28,1.6c-1.13.79-2.16,1.88-3.42,2.29a22.57,22.57,0,0,1-13.89.42C196.8,159.72,196.52,159.89,196.34,159.94Zm-7.77-16.74c-1.08.32-2.11.61-3.12,1a1,1,0,0,0-.59.6,11.55,11.55,0,0,0,.73,8.27,4,4,0,0,0,5.2,1.95,11.42,11.42,0,0,1-1.73-8A5.88,5.88,0,0,0,188.57,143.2Zm-80.9,166.69c1.45-1.35,2.64-2.44,3.79-3.58a1.28,1.28,0,0,0,.26-.95c-.15-1.84-.35-3.67-.53-5.5l-.28-.07C109.86,303.07,108.81,306.35,107.67,309.89ZM80.72,165.32c-3,2.52-3.79,5.4-2.22,8.43C79,170.76,81.24,168.53,80.72,165.32Zm140.5-35.24c-.75-2.42-2.92-3.12-4.89-4.06Zm-108,71-.27.4,1.42,1.11.24-.31Zm2.47,2.79.33-.35-.72-.65-.3.32ZM200,156.31l.09,0s-.05-.06-.08-.06-.06,0-.09,0Z" transform="translate(-51.95 -30.34)"/><path class="b" d="M93,224.23l2.28,10.9c-.82,2.43-1.65,4.86-2.47,7.28l-.34,0v-6.44a9.72,9.72,0,0,0-.91.75C76,254.14,65.78,274.19,62.1,297.4a103.56,103.56,0,0,0,0,33.38,39,39,0,0,0,3.13,10.73l-.17.15a64.41,64.41,0,0,1-8.21-17.21,90.73,90.73,0,0,1-4.09-19.13A97.62,97.62,0,0,1,52,293.88a109.72,109.72,0,0,1,1-12.4A187.26,187.26,0,0,1,58,255,94.77,94.77,0,0,1,68.32,231c.12-.2.22-.42.33-.63l.1-.26-.29,0-6.55,3.07,7.74-10.44-.24-.38-12.22-.58A58.67,58.67,0,0,0,73.91,206.7l7.1,6.49-2.88,1,.08.16,2.9.21-5.69,6.13.15.34,5.56-.87c-3.49,3.73-5.07,8.11-6,12.78a23,23,0,0,1-.72,3.73c-1.07,2.86-2.33,5.66-3.51,8.48-.17.41-.31.82-.47,1.23a41.91,41.91,0,0,0,3-4.6,13.64,13.64,0,0,1,5.08-5.23,28.91,28.91,0,0,0,7.75-6.14c1.12-1.26,2.2-2.55,3.31-3.84l1,3ZM70.36,247.1s.07,0,.08-.06a.22.22,0,0,0,0-.11l-.12.08S70.35,247.07,70.36,247.1Z" transform="translate(-51.95 -30.34)"/><path class="b" d="M65.24,341.51l.25.41-.15.09-.27-.35Z" transform="translate(-51.95 -30.34)"/><path class="c" d="M181.29,137.48l8.9-9.8a3.14,3.14,0,0,0,.32.57,2.35,2.35,0,0,1,0,3.13,2.8,2.8,0,0,0-.44,1.1,18.92,18.92,0,0,1-1.57,3.91c-.56,1.28-.47,2.85-.72,4.28-.06.3-.26.75-.5.83a27.22,27.22,0,0,1-3.08.91c-1.39.34-1.79.94-1.54,2.38a3,3,0,0,1,0,1,14,14,0,0,0,.58,6.85c1.32,3.95,4.51,5.56,8.49,4.33l1-.32a60.28,60.28,0,0,1,1.43,7.2c.23,2.72.86,5,3.37,6.46.46.27.49,1.26.72,1.92a25.45,25.45,0,0,0-1.42,2.39,47.65,47.65,0,0,1-12.38,17,43.85,43.85,0,0,1-10.4,7.13,59.31,59.31,0,0,1-23.36,5.16c-3.85.06-7.7-.43-11.54-.67l-1.94-1.68a9.82,9.82,0,0,0,1.45-1.67,8.8,8.8,0,0,0,.58-2.07c0-.14-.11-.34-.06-.46a50.89,50.89,0,0,1,2-4.8,9.17,9.17,0,0,0,.8-5.35,1.8,1.8,0,0,1,.43-1.27c1-1,1.86-1.89,1.65-3.39,0-.27,0-.6-.14-.8-1.82-2.62-3.41-5.55-7.45-5.34a36.78,36.78,0,0,1,.7-4.18,5.25,5.25,0,0,0-1-4.84,8.28,8.28,0,0,0-8.62-3.18,8,8,0,0,0-6.79,6,2.45,2.45,0,0,1-1.87,1.86l-1.13-3.6c0-1.07,0-2.15.08-3.22.19-2.53.45-5.06.6-7.59,0-.36-.35-.75-.55-1.13a5.62,5.62,0,0,0-.6,1.1c-.46,1.74-.88,3.48-1.31,5.23l-.33-.07c.61-4.2,1.34-8.4.48-12.68l1.63.63h0a3.77,3.77,0,0,0,.63.78c2.43,1.72,4.89,3.4,7.34,5.11a36.62,36.62,0,0,0,17.38,6.76,31.53,31.53,0,0,0,16.48-3,43.57,43.57,0,0,0,15.9-12.7,57.58,57.58,0,0,0,4.14-6.8h0l.23-.72Z" transform="translate(-51.95 -30.34)"/><path class="c" d="M130.22,218.18a18.74,18.74,0,0,0,2.19,1.62c3.31,1.75,7.25.72,9.86-2.52.42-.52.77-1.1,1.16-1.66,2.08.24,4.16.61,6.25.68a58.18,58.18,0,0,0,14.37-.93c5-1.07,9.88-2.49,14.21-5.33,5.71-3.75,10.83-8.13,14.49-14a31.89,31.89,0,0,0,2-4.42h0l.23-.26,1.79-2.43c.09.86.18,1.46.22,2.07.86,11.67.39,23.19-3.92,34.27a33.56,33.56,0,0,1-6.92,11.21,4.86,4.86,0,0,0-1.15.2,71.22,71.22,0,0,1-14.52,4.07,5.29,5.29,0,0,1-4.32-.61,57.62,57.62,0,0,1-9.23-8.06,2.77,2.77,0,0,1-.31-.62c1-.66,2.42-.68,3-2.17l-4,1.67-.05-.33c.77-.61,2-.54,2.67-1.88a44.65,44.65,0,0,1-5,1.89c-2.41.61-4.89,1-7.33,1.44a21.71,21.71,0,0,0-2.78.69,4.71,4.71,0,0,0-3.16,2.88,32.31,32.31,0,0,1-8.13,11.12,3.76,3.76,0,0,0-1,.29c-3.94,2.59-8.46,3-13,3.52a2.47,2.47,0,0,1-1.5-.49,52.8,52.8,0,0,1-10.28-9.58c-1.92-2.32-3.41-4.63-3.14-8.11a140.86,140.86,0,0,1,1.61-14.78c.29-1.62.72-3.21,1.12-5,.65.41,1.13.69,1.58,1a82.86,82.86,0,0,0,13.13,7.82c1.74.76,3.56,1.75,5.45.56a39.32,39.32,0,0,0,3.86-3A2.91,2.91,0,0,0,130.22,218.18Z" transform="translate(-51.95 -30.34)"/><path class="d" d="M88,121.44c-.42-.66-.89-1.31-1.26-2-18-34.5,1.82-76.8,39.84-85.17a59.2,59.2,0,0,1,71.06,47.58,60,60,0,0,1-.07,21,5.44,5.44,0,0,1-.19.57,35.12,35.12,0,0,0-13-6.52c.36-3.62.49-7.23-.73-10.75a2.5,2.5,0,0,0,.19-.94c-.41-2-.77-4.06-1.33-6a46.39,46.39,0,0,0-10.6-18.88,44.87,44.87,0,0,0-16-11.08A37.63,37.63,0,0,0,141.68,46a52.77,52.77,0,0,0-11.64.75,27.88,27.88,0,0,0-8.49,2.93,18.57,18.57,0,0,1-2-1.85c-1.32-1.59-2.51-3.28-3.85-4.85a2.32,2.32,0,0,0-1.64-.91c-.46.07-1,.84-1.17,1.4a15.07,15.07,0,0,0-.47,3.41c-.08,2.58-.06,5.16-.08,7.74l-7.08,6.06a26.74,26.74,0,0,0-3.12-.76,6.47,6.47,0,0,0-1.9.32,7.56,7.56,0,0,0,.52,1.67c.48.82,1.1,1.55,1.65,2.32a6.27,6.27,0,0,0-.94.83,44.16,44.16,0,0,0-7,14.57l-.41,1.25A47.05,47.05,0,0,0,92.8,93.71c0,.91.17,1.82.23,2.73a35.89,35.89,0,0,0,2.49,10.88c1,2.58,2.34,5.06,3.52,7.58q-2.06,1.2-4.1,2.41ZM173.1,53h0c0,.27.11.55.14.83.06.53.1,1,.15,1.58l1.07,1c.38.53.76.52,1.15,0l.62-.18a3.51,3.51,0,0,0,0,1.08c.19.49.4,1.15.8,1.36.73.39,2.09-.69,2.44-1.77a1.61,1.61,0,0,0-1.05-2.18,3.78,3.78,0,0,1-.69-.52l0-1.19-.32-.58-.69-.89-.55-.37-1.7.5-.41-2.61-2.64-3.51-.52-.47-.53-.46-.67-.5-1.43-.95-.73-.48-1.1-.53-.58-.42c-1.79-.86-3.54-1.82-5.38-2.56S156.87,38,155,37.35l-.61-.36-3.13-.74-.71-.19L150.1,36l-.48-.14a26.6,26.6,0,0,0-3.18-.5c-2.85-.12-5.7-.13-8.56-.18l-.72.1-2.88.34-.71.16-.48.06-.49.15-.71.1-.48.16-.48.08-.61.32L126.13,38l-.58.36a22,22,0,0,0-2.9,1.36,7,7,0,0,0-1.32,1.56l.24,1,.61.28.83.3h1.19l.49-.12,1.91-.12,3.36-.13h9.12l2.16.19,1.19.07,1.2.17.72.06,2.4.37.73.09.71.19.48.06.48.16.48.08.48.17.48.08L156.1,46l1.8.58,1.56.87,1.83.8,1.05.61.85.35,1.06.65.84.32.6.43.91.5.53.38,1.15.58,1.49.87.88.34C171.57,54.09,172.36,53.76,173.1,53Z" transform="translate(-51.95 -30.34)"/><path class="e" d="M121.22,328.24l.64,3.08-.44.16c-1.15-2.57-2.45-5.07-3.41-7.7a86.59,86.59,0,0,1-5-25.4A89,89,0,0,1,115.34,272c.72-2.86,1.61-5.68,2.18-8.57a59.65,59.65,0,0,0,.65-6.42c.11-1.18.43-1.9,1.88-2,7-.75,12.32-4.5,16.66-9.83a39.13,39.13,0,0,0,5.6-8.75,4.48,4.48,0,0,1,2.25-2,5.46,5.46,0,0,1,3.47-.52c.85.29,1.33,1.67,2,2.57.17.26.3.56.44.82-5.25,4.41-8.9,10-12.39,15.76a4.84,4.84,0,0,0-1.14.89c-3,4.29-5.89,8.65-7.76,13.55-3.69,9.71-7.55,19.38-9.32,29.67-.86,5-1.35,10.14-1.79,15.24a40.2,40.2,0,0,0,.22,7.27,22.77,22.77,0,0,0,2.38,8.2C120.72,328.05,121,328.12,121.22,328.24Z" transform="translate(-51.95 -30.34)"/><path class="f" d="M130.22,218.18a2.91,2.91,0,0,1-.5.9,39.32,39.32,0,0,1-3.86,3c-1.89,1.19-3.71.2-5.45-.56a82.86,82.86,0,0,1-13.13-7.82c-.45-.31-.93-.59-1.58-1-.4,1.75-.83,3.34-1.12,5A140.86,140.86,0,0,0,103,232.42c-.27,3.48,1.22,5.79,3.14,8.11a52.8,52.8,0,0,0,10.28,9.58,2.47,2.47,0,0,0,1.5.49c4.51-.47,9-.93,13-3.52a3.76,3.76,0,0,1,1-.29,21.23,21.23,0,0,1-11.48,6c-7.85,1.51-13.61-1.82-18-8-4-5.59-5.92-12-6.93-18.7-1.27-8.4-.58-16.72,1-25a.57.57,0,0,1,.12-.18c3.18,1.59,6.59,1.72,10,1.6a2.59,2.59,0,0,1,1.11.36l6.94,3.23a6.39,6.39,0,0,1,1.16.61q6.93,5.44,13.82,10.92A6.5,6.5,0,0,1,130.22,218.18Z" transform="translate(-51.95 -30.34)"/><path class="g" d="M80.52,174.35c.42-1.15.85-2.3,1.26-3.45.3-.85.58-1.71.87-2.57.33-.17.77-.26,1-.53,1.69-2.16,4.23-3,6.51-4.2.16-.08.49.14.75.23h0l-.26.23c-1.92,1.89-3.89,3.73-5.74,5.69a4.74,4.74,0,0,0-.94,2.13c-.09.37.24.84.38,1.26a3.66,3.66,0,0,0,1.21-.49c2.32-2.19,4.54-4.5,6.93-6.62a55.63,55.63,0,0,1,4.87-3.6,1.54,1.54,0,0,1,.88-.31,27.86,27.86,0,0,1,16.28,5.79c1.82,1.42,1.8,1.45,2.24,4.84-1,.07-1.95.08-2.91.23a2.3,2.3,0,0,0-1.27.66,11.43,11.43,0,0,0-1.14,1.67c-1.89.18-2.77,1.63-3.55,3a29.86,29.86,0,0,0-3.3,9.3c-.15.83-.45,1.15-1.31,1.13a43.5,43.5,0,0,1-11.52-1.64,5.12,5.12,0,0,1-2.27-1.2c-1.81-2-3.51-4.11-5.16-6.25C83,178,81.78,176.13,80.52,174.35Z" transform="translate(-51.95 -30.34)"/><path class="c" d="M112.15,164.11,99.52,158.5a1.38,1.38,0,0,0-2-1c-2,.75-4,1.45-6,2.3-1.7.75-3.32,1.67-5.07,2.56a5.1,5.1,0,0,1-.09-.76c.15-2.61.24-5.23.47-7.84.3-3.23.63-6.46,1.12-9.67.34-2.18,1-4.32,1.48-6.48.75-1.12,1.43-2.29,2.27-3.34a1.7,1.7,0,0,1,2.66,0,62.05,62.05,0,0,0,19.71,14c.21.1.4.25.6.37-.33,3.34-.55,6.7-1,10A45.58,45.58,0,0,1,112.15,164.11Z" transform="translate(-51.95 -30.34)"/><path class="h" d="M86.63,124.38l5,7c-4.81,4.59-7.05,10.61-8.89,16.81a41.74,41.74,0,0,0-2,12.56,4,4,0,0,1-1.49,3.39c-2.23,1.88-3.86,4.29-3.46,7.37a17,17,0,0,0,1.63,5.18,55,55,0,0,0,7.68,12c2.76,3.2,5.71,6.23,8.63,9.28a2.24,2.24,0,0,1,.78,2.64c-.85,2.6-.71,2.62-3,1a123,123,0,0,1-14.42-12.14c-1.84-1.81-3.4-3.9-5.17-5.79-1.24-1.32-1.22-3-1.1-4.49.29-3.84.71-7.67,1.37-11.46C73,163.36,73.9,159,75,154.78c2.6-9.8,6.6-19.11,10.5-28.44A21,21,0,0,1,86.63,124.38Z" transform="translate(-51.95 -30.34)"/><path class="i" d="M131.94,202.73a21.53,21.53,0,0,1-7.78,3.26,3,3,0,0,1-2.07-.52c-1.65-1.12-3.19-2.4-4.79-3.59a14.55,14.55,0,0,1-5.45-8c-.94-3.38-2.09-6.76-1.53-10.38,1,2.07,2,4.19,3.11,6.17.79,1.36,1.48,2.89,3.24,3.43.44.14.8.73,1.07,1.19,1.83,3,3.6,6.09,5.43,9.12.36.59.86.72,1.29,0a18.25,18.25,0,0,0,1-1.63,60.44,60.44,0,0,0,3.12-7.58c.46-1.62,1.1-3.88-1.59-4.68-.07,0-.12-.11-.18-.16a26.81,26.81,0,0,1-6.35-7.24,6.32,6.32,0,0,1-.38-2.44l2.44,2.23a5.8,5.8,0,0,0,1.3,1.09,3.91,3.91,0,0,0,2,.51c2.8-.35,5.6-.83,8.39-1.27l1.17-.21c1.24-.24,1.41-.65,1-1.89a11.18,11.18,0,0,1-.16-2.28,13.4,13.4,0,0,1,2.88,1.24,25.34,25.34,0,0,1,2.72,2.85,1.24,1.24,0,0,1-.16,2,23.78,23.78,0,0,1-8.3,4.85c-.86.32-1.75.57-2.61.87-.59.2-1.44.33-1.1,1.19.12.3,1.06.56,1.47.41,2.66-.95,5.27-2,7.89-3a7.64,7.64,0,0,0,.83-.47,3.27,3.27,0,0,1-.91,3.9,21.17,21.17,0,0,1-6.72,3.82c-.22.08-.53.1-.66.26a6.79,6.79,0,0,0-.59,1c.33.16.72.52,1,.45a33.76,33.76,0,0,0,3.7-1.3,25.82,25.82,0,0,0,2.32-1.24l.21.22c-.84,3.8-4.05,4.88-7.08,6.18a6.65,6.65,0,0,0-1.41.63c-.25.19-.31.64-.45,1,.31.13.63.38.92.35a8.73,8.73,0,0,0,1.61-.43Z" transform="translate(-51.95 -30.34)"/><path class="f" d="M139.09,203.14c3.84.24,7.69.73,11.54.67A59.31,59.31,0,0,0,174,198.65a43.85,43.85,0,0,0,10.4-7.13,47.65,47.65,0,0,0,12.38-17,25.45,25.45,0,0,1,1.42-2.39c.55,4.72-.51,9.13-2.24,13.51-1.48,3.74-4.29,6.15-7.35,8.42-10.44,7.77-22,12.9-35,14.45-3.08.36-6.2.49-9.29.72C143.08,206.68,140.92,205.05,139.09,203.14Z" transform="translate(-51.95 -30.34)"/><path class="f" d="M194.71,191.64a31.89,31.89,0,0,1-2,4.42c-3.66,5.85-8.78,10.23-14.49,14-4.33,2.84-9.2,4.26-14.21,5.33a58.18,58.18,0,0,1-14.37.93c-2.09-.07-4.17-.44-6.25-.68l1.27-4.1c1.84-.12,3.86-.23,5.87-.39a69.75,69.75,0,0,0,34.37-12C188.32,196.79,191.46,194.14,194.71,191.64Z" transform="translate(-51.95 -30.34)"/><path class="f" d="M80.52,174.35c1.26,1.78,2.46,3.61,3.79,5.33,1.65,2.14,3.35,4.25,5.16,6.25a5.12,5.12,0,0,0,2.27,1.2,43.5,43.5,0,0,0,11.52,1.64c.86,0,1.16-.3,1.31-1.13a29.86,29.86,0,0,1,3.3-9.3c.78-1.41,1.66-2.86,3.55-3-.65,1.19-1.36,2.34-2,3.56a8.83,8.83,0,0,0-.61,5.82c1,5,2,10,3.08,15-3.63.55-7.49,1.24-11.37.28a7.22,7.22,0,0,1-2.92-1.48,81.57,81.57,0,0,1-15.2-17.33c-.7-1.11-1.26-2.32-2-3.43A2.79,2.79,0,0,1,80.52,174.35Z" transform="translate(-51.95 -30.34)"/><path class="j" d="M217.73,121.57a5.41,5.41,0,0,0,1.38.36c1.92,0,2.37,1.2,2.74,2.84a72.14,72.14,0,0,1,1.85,16.49c-.78,1-1.23,2.36-2.64,2.93a16.26,16.26,0,0,0-1.15-1.85c-.52-.64-1.15-1.19-1.73-1.78h0c-.08-.17-.16-.33-.23-.5-2.76-5.11-7.26-8.35-12.08-11.24-1.7-1-3.45-1.13-4.79.33-1.8,1.94-4,2.11-6.36,2.09.15-1.22.31-2.44.46-3.66l7-7.16a42.38,42.38,0,0,1,19.6,11.28,3.72,3.72,0,0,0-.44-3.6l-.26-.27-.22-.21a7.21,7.21,0,0,0-1.52-1.71c-2.48-1.42-5-2.75-7.57-4.06-1.11-.57-2.28-1-3.43-1.52a1,1,0,0,1,.73-.08c2.22.62,4.42,1.28,6.64,1.87C216.42,122.32,217.35,122.85,217.73,121.57Z" transform="translate(-51.95 -30.34)"/><path class="k" d="M120.08,179.64a6.32,6.32,0,0,0,.38,2.44,26.81,26.81,0,0,0,6.35,7.24c.06.05.11.14.18.16,2.69.8,2,3.06,1.59,4.68a60.44,60.44,0,0,1-3.12,7.58,18.25,18.25,0,0,1-1,1.63c-.43.73-.93.6-1.29,0-1.83-3-3.6-6.09-5.43-9.12-.27-.46-.63-1-1.07-1.19-1.76-.54-2.45-2.07-3.24-3.43-1.16-2-2.09-4.1-3.11-6.17-.1-3.17,1.7-5.56,3.37-8a1.44,1.44,0,0,1,.82-.39c2-.5,4-1,6.14-1.49.12,1.17.26,2.45.36,3.75a.7.7,0,0,1-.27.57C119.89,178.28,120,179,120.08,179.64Z" transform="translate(-51.95 -30.34)"/><path class="l" d="M93,224.23l-2.28,5.38-1-3c-1.11,1.29-2.19,2.58-3.31,3.84a28.91,28.91,0,0,1-7.75,6.14,13.64,13.64,0,0,0-5.08,5.23,41.91,41.91,0,0,1-3,4.6c.16-.41.3-.82.47-1.23,1.18-2.82,2.44-5.62,3.51-8.48a23,23,0,0,0,.72-3.73c.9-4.67,2.48-9.05,6-12.78l-5.56.87-.15-.34,5.69-6.13-2.9-.21-.08-.16,2.88-1c3.59,2.23,7.32,4.12,11.62,4.7C92.74,220.05,92.85,222.14,93,224.23Z" transform="translate(-51.95 -30.34)"/><path class="m" d="M202.55,130.44c.45-.07,1-.37,1.32-.19,4,2.5,8,5.11,10.9,9a13.59,13.59,0,0,1,2.72,7.18c0,.71.24,1.41.28,2.12.16,2.83-1.34,4.71-3.6,6.14-2.49-.1-3.41-2.76-3.11-4.87.14-1,.25-1.95.38-2.92.52-1.38,1-2.74,1.55-4.12a2,2,0,0,0,.2-1,5.54,5.54,0,0,0-.65-1.22c-.33.32-.85.59-1,1a31.44,31.44,0,0,1-5.4,10.53c-.41-.12-.83-.22-1.23-.38-2.68-1.06-3.08-1.81-2.62-4.7.21-1.28.33-2.57.49-3.86l.8-3.52.12-1.18v-.48A2.65,2.65,0,0,0,204,137a43.92,43.92,0,0,0-.55-4.43A10.13,10.13,0,0,0,202.55,130.44Z" transform="translate(-51.95 -30.34)"/><path class="g" d="M184.33,96.87a35.12,35.12,0,0,1,13,6.52A49.54,49.54,0,0,1,193,116.8c-.41-.13-.82-.25-1.23-.39-3-1-5.75-2.73-9.08-2.25,0-2.7,0-5.39,0-8.08a7.87,7.87,0,0,1,.11-1.54C183.27,102,183.8,99.42,184.33,96.87Z" transform="translate(-51.95 -30.34)"/><path class="i" d="M105,271.69c-2.46.05-3.9-1.58-5.22-3.29A14.69,14.69,0,0,1,97,258.93c.08-5.65.45-11.29.88-17,4.18,7.22,9.39,12.81,18.46,13.13-.27,2.66-.53,5.25-.79,7.83-.79-.52-1.61-1-2.35-1.57-1.4-1.09-2.8-2.21-4.73-1.76a58.77,58.77,0,0,0-5.86,1.56c-3.08,1-3.25,1.6-1.51,4.47C102.36,267.65,103.72,269.66,105,271.69Zm.24-13.52c3.41-.77,6.83-.1,10.24.12-5.12-2-10.17-1.06-15.48.36l12.51.57,0-.45Z" transform="translate(-51.95 -30.34)"/><path class="f" d="M156.58,231.48a2.77,2.77,0,0,0,.31.62,57.62,57.62,0,0,0,9.23,8.06,5.29,5.29,0,0,0,4.32.61A71.22,71.22,0,0,0,185,236.7a4.86,4.86,0,0,1,1.15-.2c-4.06,4.65-8.81,8.28-15.14,9-7.6.88-13.45-2.35-18-8.28-1.13-1.48-2.05-3.12-3.15-4.82l5.72-1.77.05.33-2.31,1.08.15.41Z" transform="translate(-51.95 -30.34)"/><path class="h" d="M78.89,194.26c3.76,3,7.5,6,11.29,9a34.83,34.83,0,0,0,3.3,2c-.25,2.56-.53,5.42-.82,8.44a13,13,0,0,1-1.38-.26,28.88,28.88,0,0,1-10.71-6.09,18.34,18.34,0,0,1-5.81-8.14c-.17-.53-.27-1.08-.4-1.61a7.66,7.66,0,0,0,.83,0C77.86,197.38,78.88,196.45,78.89,194.26Z" transform="translate(-51.95 -30.34)"/><path class="n" d="M173,256.65a10.82,10.82,0,0,1-8.36,9.18,11.69,11.69,0,0,1-3.4.4,2.81,2.81,0,0,1-2.65-1.76c-.88-1.91-1.67-3.87-2.5-5.81,0-.67,0-1.35.07-2,.1-2.08.72-2.8,2.7-3.13s4-.61,5.93-.92l2.84.18a4.5,4.5,0,0,1,5,3.29A2.7,2.7,0,0,0,173,256.65Z" transform="translate(-51.95 -30.34)"/><path class="o" d="M121.22,328.24c-.2-.12-.5-.19-.59-.37a22.77,22.77,0,0,1-2.38-8.2,40.2,40.2,0,0,1-.22-7.27c.44-5.1.93-10.2,1.79-15.24,1.77-10.29,5.63-20,9.32-29.67,1.87-4.9,4.77-9.26,7.76-13.55a4.84,4.84,0,0,1,1.14-.89,140.4,140.4,0,0,0-16.23,48,115.89,115.89,0,0,0-1.32,14.52C120.39,319.8,121,324,121.22,328.24Z" transform="translate(-51.95 -30.34)"/><path class="p" d="M179.36,135.52a53.78,53.78,0,0,1-14.61,10.06,58.6,58.6,0,0,1-29.64,5.68A55.53,55.53,0,0,1,116,146.61l-1-1.18-1.19-1.38c.44.2.88.39,1.31.6A48.45,48.45,0,0,0,136,150.1a110.29,110.29,0,0,0,11.34-.49,60.78,60.78,0,0,0,7.3-1.23c.53-.11,1-.71,1.45-1.08,2.37-.55,4.8-.93,7.1-1.7a21.4,21.4,0,0,0,12.31-10.77c.58-1.1.62-2.5,1.26-3.54a12.05,12.05,0,0,0,1.56-6,9.41,9.41,0,0,1,.91-3.52,15.92,15.92,0,0,1,2.07-2.76,1.51,1.51,0,0,0,0,.48,15.57,15.57,0,0,1-1.45,14.83,3.73,3.73,0,0,0-.26,1h0Z" transform="translate(-51.95 -30.34)"/><path class="n" d="M105,271.69c-1.31-2-2.67-4-3.93-6.11-1.74-2.87-1.57-3.43,1.51-4.47a58.77,58.77,0,0,1,5.86-1.56c1.93-.45,3.33.67,4.73,1.76.74.58,1.56,1.05,2.35,1.57a15.71,15.71,0,0,1-2.41,6.54c-1.76,2.68-4.49,2.47-7.17,2.44A6.19,6.19,0,0,1,105,271.69Z" transform="translate(-51.95 -30.34)"/><path class="q" d="M89.41,137.61c-.5,2.16-1.14,4.3-1.48,6.48-.49,3.21-.82,6.44-1.12,9.67-.23,2.61-.32,5.23-.47,7.84a5.1,5.1,0,0,0,.09.76c1.75-.89,3.37-1.81,5.07-2.56,2-.85,4-1.55,6-2.3a1.38,1.38,0,0,1,2,1,3.92,3.92,0,0,0-3.18.05c-2.58,1.11-5.19,2.17-7.77,3.28a6.68,6.68,0,0,0-1.1.75l.16.31c.38-.14.75-.28,1.12-.44,2.6-1.06,5.2-2.13,7.81-3.18a3.9,3.9,0,0,1,3,0,30.08,30.08,0,0,1,3.82,1.61c-1.32-.08-2.64-.21-4-.21a3.51,3.51,0,0,0-1.49.52C93,164,89.14,168.05,85.2,172c-.13.13-.29.25-.56.47a5.39,5.39,0,0,1,1.83-3.63,28,28,0,0,1,7-5.68,5.22,5.22,0,0,0,.7-.54l-.21-.38-3.11,1.59c-.26-.09-.59-.31-.75-.23-2.28,1.22-4.82,2-6.51,4.2-.21.27-.65.36-1,.53,0-2.35.11-4.7.13-7.06A49.63,49.63,0,0,1,89,138.07,4.14,4.14,0,0,1,89.41,137.61Z" transform="translate(-51.95 -30.34)"/><path class="j" d="M202.37,118.44c-1.88.28-3.81.45-5.23,2-.25-.4-.53-.78-.74-1.2s-.5-1.13-.74-1.7l4-11.23c.55.4,1.27.86,1.92,1.41q6.38,5.43,12.71,10.89a10.74,10.74,0,0,1,.94,1.07,7.07,7.07,0,0,1-1-.19A28.06,28.06,0,0,0,203.64,118,4.85,4.85,0,0,0,202.37,118.44Z" transform="translate(-51.95 -30.34)"/><path class="r" d="M173,256.65a2.7,2.7,0,0,1-.35-.59,4.5,4.5,0,0,0-5-3.29c-.3-.23-.59-.63-.91-.66-2-.13-4-.23-6-.23a34.59,34.59,0,0,0-3.52.31l0,.4h7.62c-2,.31-4,.6-5.93.92s-2.6,1.05-2.7,3.13c0,.67-.05,1.35-.07,2a12.32,12.32,0,0,1-1.32-5.75c0-3.35,0-6.69.2-10.19,5.23,4.21,11.14,5.41,17.87,4.64C172.85,250.57,172.9,253.61,173,256.65Zm-11-5.1h8.8C169.58,250.72,163.15,250.56,161.92,251.55Z" transform="translate(-51.95 -30.34)"/><path class="i" d="M153.2,152.24l1.7-.42c-.09.66-.49,1.58-.21,1.92a3.27,3.27,0,0,0,2,.82,4.78,4.78,0,0,0,2-.45c1.79-.65,3.56-1.34,5.34-2a21.82,21.82,0,0,1-2,1.18A50.62,50.62,0,0,1,142,157.78a53.33,53.33,0,0,1-6.29-.44A32.08,32.08,0,0,1,123.93,154c-2.1-1-4.14-2.22-6.2-3.33h0l-1.2-1.22c4,1.13,8,2.48,12,3.32a56.25,56.25,0,0,0,19.37.38c.47-.07.95-.07,1.43-.11a2.11,2.11,0,0,1,0,.36,2,2,0,0,0,1.6,2.53c1.45.26,2.8-.51,2.86-1.8A5.67,5.67,0,0,0,153.2,152.24Z" transform="translate(-51.95 -30.34)"/><path class="s" d="M206.44,186.58l-.24-.45c-.24-.4-.47-.81-.71-1.22,0-.11.15-.23.13-.33-.41-2.44.78-4.15,2.66-5.4s3.64-1.87,5.64-.4c.13.1.39,0,.65,0a3.29,3.29,0,0,0-3.66-1.47,7.93,7.93,0,0,0-6.15,5.67c-.88-1.23-.42-2.61-.37-3.92,0-.73.46-1.1,1.34-1.15,2.22-.13,4.11-.8,4.74-3.34a8.69,8.69,0,0,1,1.24-2.12c1.21,2.25,2.32,4.55,3.65,6.71,1.93,3.15-.13,7.62-3.46,9.05-1.87.8-4.22.72-5.46-.89Z" transform="translate(-51.95 -30.34)"/><path class="s" d="M88,121.44l7-4.13q2-1.22,4.1-2.41l.91-.29q.27,4.8.52,9.6l-1.92,1.62-6.33-2.54-.21.53,6,2.55-1,.68c-.92-.27-1.76-.9-2.77-.73l-.16.37,2,1.31L94,130a32.8,32.8,0,0,1-2.44-2.85C90.3,125.32,89.16,123.36,88,121.44Z" transform="translate(-51.95 -30.34)"/><path class="s" d="M129.18,175.31a6.47,6.47,0,0,1-5-1.57c-.7-.64-1.76-1.25-1.53-2.23a8.46,8.46,0,0,1,1.68-3.49c2-2.24,6.22-2.55,8.7-.91,1.45,1,2,2.46,2.44,4a.57.57,0,0,1-.07.46C133.64,173.6,132,175.8,129.18,175.31Z" transform="translate(-51.95 -30.34)"/><path class="s" d="M196.38,157.34c-1.09.65-1.19-.26-1.38-.92-.92-3.1-1.77-6.21-2.72-9.29-.47-1.53-1.16-3-1.63-4.5a30.22,30.22,0,0,1-.76-3.52,3,3,0,0,1,1-2.8,9.66,9.66,0,0,1,4.89-2.86c1.3-.25,2.91-.14,3.46,1a4.65,4.65,0,0,1-.33,3.51,5.43,5.43,0,0,1-4.33,3,21,21,0,0,1-4-.25c.08.69,1.06,1.17,3.18,1.28.08.59.14,1.18.24,1.76q.71,4,1.43,8c-.85.12-1.1.66-.75,1.36.44.87,1,1.67,1.51,2.51C196.24,156.2,196.31,156.77,196.38,157.34Z" transform="translate(-51.95 -30.34)"/><path class="s" d="M140.68,207.67a4.87,4.87,0,0,1,1.68,5.09,7.83,7.83,0,0,1-5.64,5.81c-1.36.38-2.11-.28-2.95-1.06a3.73,3.73,0,0,0-.68-.38l-.5-.57a8.9,8.9,0,0,1-.45-1.92c0-3.12,1.77-5.06,4.32-6.46a3.37,3.37,0,0,1,3.6-.15C140.16,208.09,140.47,207.8,140.68,207.67Z" transform="translate(-51.95 -30.34)"/><path class="h" d="M131.64,216.34c-1-.72-2-1.39-2.95-2.15q-5.86-4.66-11.71-9.39a.7.7,0,0,1-.22-.69l3.71,2.63a3.08,3.08,0,0,1,.27.24,4.31,4.31,0,0,0,4.44,1,30.82,30.82,0,0,0,10.29-5.11l2.9,2.43L137.16,207c-.46.23-.93.43-1.37.69C133.08,209.24,130.48,212.69,131.64,216.34Z" transform="translate(-51.95 -30.34)"/><path class="r" d="M196.34,159.94c.18-.05.46-.22.66-.15a22.57,22.57,0,0,0,13.89-.42c1.26-.41,2.29-1.5,3.42-2.29l2.28-1.6c-.56,2.24-1,4.23-1.58,6.2-.1.36-.56.65-.91.9-2.34,1.7-5.12,2.35-7.83,3.14a1.21,1.21,0,0,1-.7-.06c-2-.83-4-1.56-5.9-2.57-.78-.41-1.19-1.48-1.84-2.18A8.18,8.18,0,0,0,196.34,159.94Z" transform="translate(-51.95 -30.34)"/><path class="h" d="M211.71,172.46a8.69,8.69,0,0,0-1.24,2.12c-.63,2.54-2.52,3.21-4.74,3.34-.88.05-1.31.42-1.34,1.15,0,1.31-.51,2.69.37,3.92.09.64.17,1.28.26,1.92h0l-2.17-3.17a5.59,5.59,0,0,0-.57-.91c-2.65-2.74-2.06-6.13-2-9.48,1.87.21,3.69.28,5.44.65a5.53,5.53,0,0,0,4.32-.75,5.1,5.1,0,0,1,.74-.3Z" transform="translate(-51.95 -30.34)"/><path class="f" d="M182.69,114.16c3.33-.48,6.12,1.22,9.08,2.25.41.14.82.26,1.23.39q-2.24,4-4.48,8c-1.13-1.7-2.21-3.44-3.42-5.07a9.17,9.17,0,0,0-1.91-1.48l-1.13-1.44Z" transform="translate(-51.95 -30.34)"/><path class="f" d="M116.54,149.4l1.2,1.22-1.63-.63c.86,4.28.13,8.48-.48,12.68l.33.07c.43-1.75.85-3.49,1.31-5.23a5.62,5.62,0,0,1,.6-1.1c.2.38.57.77.55,1.13-.15,2.53-.41,5.06-.6,7.59-.08,1.07-.06,2.15-.08,3.22-1-.84-2-1.66-2.89-2.56-.22-.22-.2-.68-.29-1,.87.09.81-.49,1-1.31l-.91.86c-.58-.32-.58-.32-1,.68l-1.47-.87a45.58,45.58,0,0,0,1.47-5.44c.48-3.33.7-6.69,1-10Zm-1,5.83h-.38a2,2,0,0,0,0,2.07h.35Z" transform="translate(-51.95 -30.34)"/><path class="h" d="M195.4,151.77q-.72-4-1.43-8c-.1-.58-.16-1.17-.24-1.76,2.3-.53,4.45-1.34,5.75-3.49a17.78,17.78,0,0,0,.88-1.86,29.33,29.33,0,0,1,.79,2.87,4.8,4.8,0,0,1,0,2.2,30,30,0,0,1-5.22,9.73A1.8,1.8,0,0,1,195.4,151.77Z" transform="translate(-51.95 -30.34)"/><path class="q" d="M218.18,140.56c.58.59,1.21,1.14,1.73,1.78a16.26,16.26,0,0,1,1.15,1.85c1.41-.57,1.86-1.9,2.64-2.93.06,5.4-.54,10.66-3,15.56a4.54,4.54,0,0,1-2.64,2.65c.48-2.45.93-4.83,1.41-7.2A19.74,19.74,0,0,0,218.27,141,3.55,3.55,0,0,1,218.18,140.56Z" transform="translate(-51.95 -30.34)"/><path class="r" d="M211.44,146.93c-.13,1-.24,1.95-.38,2.92-.3,2.11.62,4.77,3.11,4.87-1.65,1.09-2.86,2.82-5,3.3a25.63,25.63,0,0,1-9.32.58,14.29,14.29,0,0,1,3.33-2.14c4.71-1.45,5.81-5.87,8.06-9.36A1.29,1.29,0,0,1,211.44,146.93Z" transform="translate(-51.95 -30.34)"/><path class="r" d="M188.57,143.2a5.88,5.88,0,0,1,.49,3.77,11.42,11.42,0,0,0,1.73,8,4,4,0,0,1-5.2-1.95,11.55,11.55,0,0,1-.73-8.27,1,1,0,0,1,.59-.6C186.46,143.81,187.49,143.52,188.57,143.2Z" transform="translate(-51.95 -30.34)"/><path class="r" d="M214.11,165.4c-1.83,1.51-3.65,3-5.51,4.5a1.42,1.42,0,0,1-1,.26c-2.51-.39-5-.76-7.53-1.28a7,7,0,0,1-2.67-1.24,3.18,3.18,0,0,1-1-1.83,31.63,31.63,0,0,1-.34-3.47c5.37,5.4,11.23,6.47,17.82,2.35Z" transform="translate(-51.95 -30.34)"/><path class="m" d="M164,152.09c-1.78.68-3.55,1.37-5.34,2a4.78,4.78,0,0,1-2,.45,3.27,3.27,0,0,1-2-.82c-.28-.34.12-1.26.21-1.92L167.55,147c.47.21,1.28.36,1.34.66a2.76,2.76,0,0,1-.43,1.7,4.87,4.87,0,0,1-1.08,1Z" transform="translate(-51.95 -30.34)"/><path class="g" d="M94,130l2.08-2,5.52,1.54.18.72c-1.08-.24-2.15-.53-3.24-.7a3.69,3.69,0,0,0-1.3.27,5.4,5.4,0,0,0,.85,1,4,4,0,0,0,1.32.52c1.23.31,2.46.58,3.7.86l.7.7-4-.68-.23.29,5.91,5.93.31.4.06,0c.25.67.53,1.33.75,2a2.67,2.67,0,0,1,0,.75,56.18,56.18,0,0,1-12.44-11A1.38,1.38,0,0,1,94,130Z" transform="translate(-51.95 -30.34)"/><path class="q" d="M202.37,118.44a4.85,4.85,0,0,1,1.27-.42,28.06,28.06,0,0,1,10.52,1.45,7.07,7.07,0,0,0,1,.19l2.53,1.91c-.38,1.28-1.31.75-2,.56-2.22-.59-4.42-1.25-6.64-1.87a1,1,0,0,0-.73.08c1.15.5,2.32,1,3.43,1.52,2.55,1.31,5.09,2.64,7.57,4.06a7.21,7.21,0,0,1,1.52,1.71,70.23,70.23,0,0,0-6.85-3.75c-3.72-1.56-7.57-2.79-11.38-4.15a4.16,4.16,0,0,0-.94-.09v-.18c1.93,0,3.86-.14,5.79-.13.82,0,1.64.24,2.47.32a1,1,0,0,0,.7-.33C207.94,118.27,205.14,118.5,202.37,118.44Z" transform="translate(-51.95 -30.34)"/><path class="h" d="M127.54,176.07c3,.43,5.59-.34,7.46-2.91h0c-.19,1.48-.38,3-.56,4.46a3.27,3.27,0,0,0-.1.81c.2,1.79.22,1.83-1.49,2.11-1.91.3-3.83.53-5.75.79C127.25,179.58,127.39,177.83,127.54,176.07Z" transform="translate(-51.95 -30.34)"/><path class="i" d="M202.82,143.11c-.16,1.29-.28,2.58-.49,3.86-.46,2.89-.06,3.64,2.62,4.7.4.16.82.26,1.23.38a4.34,4.34,0,0,1-4.53,2.43c-1-.1-2,0-3-.09a10.74,10.74,0,0,1-2.09-.73,22,22,0,0,0,1.83-2.39C199.92,148.57,201.36,145.83,202.82,143.11Z" transform="translate(-51.95 -30.34)"/><path class="i" d="M182.06,116.8l1.13,1.44a8.51,8.51,0,0,0,.28,1,17.26,17.26,0,0,1,1.4,7.09c-.06,1.19-.13,2.38-.2,3.56l-5.06,5.38a3.73,3.73,0,0,1,.26-1,15.57,15.57,0,0,0,1.45-14.83,1.51,1.51,0,0,1,0-.48Z" transform="translate(-51.95 -30.34)"/><path class="r" d="M167.38,150.39a4.87,4.87,0,0,0,1.08-1,2.76,2.76,0,0,0,.43-1.7c-.06-.3-.87-.45-1.34-.66,3.58-2.34,7.17-4.65,10.72-7a37.39,37.39,0,0,0,3-2.47l-1.46,2.59c-.08.24-.16.48-.23.72h0a3.09,3.09,0,0,0-.85.57,31.58,31.58,0,0,1-9.14,8A19.61,19.61,0,0,1,167.38,150.39Z" transform="translate(-51.95 -30.34)"/><path class="h" d="M73.61,197.87c.92,2,1.53,4.23,2.82,5.95a29.05,29.05,0,0,0,15.48,10.59,4.3,4.3,0,0,1,.93.52l-.19.54a22.63,22.63,0,0,1-3-.64c-6.64-2.4-12.17-6.29-15.76-12.49a20.7,20.7,0,0,1-1.41-4.5Z" transform="translate(-51.95 -30.34)"/><path class="q" d="M195.66,117.52c.24.57.46,1.15.74,1.7s.49.8.74,1.2a22.44,22.44,0,0,1-4.47,7.38c-1.38-1.42-1.44-2.11-.51-3.76C193.36,121.88,194.49,119.69,195.66,117.52Z" transform="translate(-51.95 -30.34)"/><path class="j" d="M184.67,129.91c.07-1.18.14-2.37.2-3.56a17.26,17.26,0,0,0-1.4-7.09,8.51,8.51,0,0,1-.28-1,9.17,9.17,0,0,1,1.91,1.48c1.21,1.63,2.29,3.37,3.42,5.07Z" transform="translate(-51.95 -30.34)"/><path class="s" d="M127.54,176.07c-.15,1.76-.29,3.51-.44,5.27-.46-.06-.93-.09-1.38-.19-1.78-.42-2.77-1.34-2.58-3.4a21.32,21.32,0,0,0-.43-4.18A7.63,7.63,0,0,0,127.54,176.07Z" transform="translate(-51.95 -30.34)"/><path class="e" d="M112.21,276.29l-.94,8.23-5.4,2.41-.24-.09,6.59-10.54Z" transform="translate(-51.95 -30.34)"/><path class="i" d="M106.63,141.55a2.67,2.67,0,0,0,0-.75c-.22-.68-.5-1.34-.75-2l8,5.26,1.19,1.38,1,1.18Z" transform="translate(-51.95 -30.34)"/><path class="s" d="M78.89,194.26c0,2.19-1,3.12-3.7,3.36a7.66,7.66,0,0,1-.83,0,5.19,5.19,0,0,1,2.23-4.72,1.06,1.06,0,0,1,1,0A10.54,10.54,0,0,1,78.89,194.26Z" transform="translate(-51.95 -30.34)"/><path class="e" d="M107.67,309.89c1.14-3.54,2.19-6.82,3.24-10.1l.28.07c.18,1.83.38,3.66.53,5.5a1.28,1.28,0,0,1-.26.95C110.31,307.45,109.12,308.54,107.67,309.89Z" transform="translate(-51.95 -30.34)"/><path class="m" d="M153.2,152.24a5.67,5.67,0,0,1,.63,1.84c-.06,1.29-1.41,2.06-2.86,1.8a2,2,0,0,1-1.6-2.53,2.11,2.11,0,0,0,0-.36Z" transform="translate(-51.95 -30.34)"/><path class="s" d="M80.72,165.32c.52,3.21-1.74,5.44-2.22,8.43C76.93,170.72,77.74,167.84,80.72,165.32Z" transform="translate(-51.95 -30.34)"/><path class="r" d="M202.55,130.44a10.13,10.13,0,0,1,.93,2.12A43.92,43.92,0,0,1,204,137a2.65,2.65,0,0,1-.28.94c-.2-.81.1-1.93-1.28-2-.09,0-.16-.34-.24-.52l-1.59-3.47Z" transform="translate(-51.95 -30.34)"/><path class="t" d="M131.64,216.34c-1.16-3.65,1.44-7.1,4.15-8.67.44-.26.91-.46,1.37-.69H140l.25.33.4.36c-.21.13-.52.42-.62.36a3.37,3.37,0,0,0-3.6.15c-2.55,1.4-4.37,3.34-4.32,6.46a8.9,8.9,0,0,0,.45,1.92h-.71l-.24-.22Z" transform="translate(-51.95 -30.34)"/><path class="p" d="M195.18,127.59c-.15,1.22-.31,2.44-.46,3.66l-2.81,1.33A15.78,15.78,0,0,1,195.18,127.59Z" transform="translate(-51.95 -30.34)"/><path class="p" d="M221.22,130.08,216.33,126C218.3,127,220.47,127.66,221.22,130.08Z" transform="translate(-51.95 -30.34)"/><path class="s" d="M73.61,197.87l-1.14,0c.06-1.34.1-2.69,1.62-3.33h0Z" transform="translate(-51.95 -30.34)"/><path class="s" d="M140,207h-2.88l1.21-1.69C138.92,205.86,139.48,206.42,140,207Z" transform="translate(-51.95 -30.34)"/><path class="h" d="M196.38,157.34c-.07-.57-.14-1.14-.22-1.7l3.29,1Z" transform="translate(-51.95 -30.34)"/><path class="p" d="M197.32,122.3c.35-1.67,1.48-2.39,3.28-2.64l-3.13,2.76Z" transform="translate(-51.95 -30.34)"/><path class="h" d="M205.49,184.91c.24.41.47.82.71,1.22-1.09.28-1.12-.48-1.19-1.21h.48Z" transform="translate(-51.95 -30.34)"/><path class="h" d="M113.26,201.13l1.39,1.2-.24.31L113,201.53Z" transform="translate(-51.95 -30.34)"/><path class="c" d="M114.64,164.3l.91-.86c-.18.82-.12,1.4-1,1.31Z" transform="translate(-51.95 -30.34)"/><path class="h" d="M132.59,216.56l.5.57c-.38.85-.67.28-1-.07l.49-.5Z" transform="translate(-51.95 -30.34)"/><path class="h" d="M115.73,203.92l-.69-.68.3-.32.72.65Z" transform="translate(-51.95 -30.34)"/><path class="s" d="M132.6,216.56l-.49.5-.24-.24v-.27Z" transform="translate(-51.95 -30.34)"/><path class="h" d="M206.44,186.58v.75C205.67,187.08,206.11,186.83,206.44,186.58Z" transform="translate(-51.95 -30.34)"/><path class="r" d="M203.74,138.41l-.12,1.18Z" transform="translate(-51.95 -30.34)"/><path class="p" d="M201.66,119.46v.18h-.81v-.12Z" transform="translate(-51.95 -30.34)"/><path class="h" d="M131.88,216.55v.27c-.08-.16-.15-.32-.23-.49Z" transform="translate(-51.95 -30.34)"/><path class="i" d="M131.77,202.51l.61-.07,0,0-.41.31Z" transform="translate(-51.95 -30.34)"/><path class="i" d="M138,194.59l.29-.19c0,.14,0,.27-.08.41Z" transform="translate(-51.95 -30.34)"/><path class="s" d="M74.09,194.51l.09-.31.09.05-.18.26Z" transform="translate(-51.95 -30.34)"/><path class="i" d="M179.36,135.52l.26-.24Z" transform="translate(-51.95 -30.34)"/><path class="h" d="M135,173.16l.09-.32.09.07-.18.26Z" transform="translate(-51.95 -30.34)"/><path class="h" d="M200,156.31l-.08-.06s.06-.05.09,0,.06,0,.08.06Z" transform="translate(-51.95 -30.34)"/><path class="p" d="M197.47,122.42l-.3.22.15-.34Z" transform="translate(-51.95 -30.34)"/><path class="q" d="M218,140.07c.07.17.15.33.23.5C218.1,140.4,218,140.24,218,140.07Z" transform="translate(-51.95 -30.34)"/><path class="s" d="M140.28,207.31,140,207Z" transform="translate(-51.95 -30.34)"/><path class="i" d="M132.38,202.44v-.17l.14.06-.17.09Z" transform="translate(-51.95 -30.34)"/><path class="f" d="M194.94,191.38l-.23.26Z" transform="translate(-51.95 -30.34)"/><path class="r" d="M213.92,164.84l.13.08a.22.22,0,0,1-.06.07.18.18,0,0,1-.1,0Z" transform="translate(-51.95 -30.34)"/><path class="q" d="M90.63,164.05l.26-.23Z" transform="translate(-51.95 -30.34)"/><path class="u" d="M111.63,273.31l.3.22Z" transform="translate(-51.95 -30.34)"/><path class="e" d="M112.22,276.3l.1-.09a.11.11,0,0,1,0,.06l-.09,0Z" transform="translate(-51.95 -30.34)"/><path class="q" d="M221.05,127.84l.26.27Z" transform="translate(-51.95 -30.34)"/><path class="l" d="M70.36,247.1s0-.08,0-.09l.12-.08a.22.22,0,0,1,0,.11S70.39,247.09,70.36,247.1Z" transform="translate(-51.95 -30.34)"/><path class="u" d="M68.46,230.09l.29,0-.1.26Z" transform="translate(-51.95 -30.34)"/><path class="f" d="M167.38,150.39a19.61,19.61,0,0,0,2.23-1,31.58,31.58,0,0,0,9.14-8,3.09,3.09,0,0,1,.85-.57,57.58,57.58,0,0,1-4.14,6.8,43.57,43.57,0,0,1-15.9,12.7,31.53,31.53,0,0,1-16.48,3,36.62,36.62,0,0,1-17.38-6.76c-2.45-1.71-4.91-3.39-7.34-5.11a3.77,3.77,0,0,1-.63-.78c2.06,1.11,4.1,2.28,6.2,3.33a32.08,32.08,0,0,0,11.73,3.39,53.33,53.33,0,0,0,6.29.44,50.62,50.62,0,0,0,20.11-4.51,21.82,21.82,0,0,0,2-1.18Z" transform="translate(-51.95 -30.34)"/><path class="f" d="M179.6,140.79c.07-.24.15-.48.23-.72C179.75,140.31,179.67,140.55,179.6,140.79Z" transform="translate(-51.95 -30.34)"/><path class="v" d="M156.58,231.48l-3.12,1-.15-.41,2.31-1.08,4-1.67C159,230.8,157.54,230.82,156.58,231.48Z" transform="translate(-51.95 -30.34)"/><path class="t" d="M182.06,116.8l-.79,2.16a15.92,15.92,0,0,0-2.07,2.76,9.41,9.41,0,0,0-.91,3.52,12.05,12.05,0,0,1-1.56,6c-.64,1-.68,2.44-1.26,3.54a21.4,21.4,0,0,1-12.31,10.77c-2.3.77-4.73,1.15-7.1,1.7l-.44,0a27.76,27.76,0,0,1-4.49-.39c-3.11-.77-6.18-1.76-9.25-2.68-.62-.18-1.12-.45-1.71.2a7.57,7.57,0,0,1-5.88,2.46l-1.16-.27c-8.45-2.27-15.95-6.54-23.33-11.07-1.89-1.16-3.6-2.62-6-2.64l-.7-.7c.23,0,.47,0,.7,0,1.19.14,1.39-.08,1.14-1.25a8.8,8.8,0,0,1,1.14.47c3.78,2.32,7.48,4.77,11.33,6.95A47,47,0,0,0,131.75,144c3.07.58,5.78.07,7.93-2.45a1.86,1.86,0,0,1,1.55-.31,37.35,37.35,0,0,1,3.58,1.31c-.48-1.06-.78-1.83-1.16-2.56-1.52-2.9-4.25-4.28-7.14-5.26a31,31,0,0,0-6.26-1.34c-2.61-.33-5.06-2.53-6-5.78a3.18,3.18,0,0,1,2.56-4.29c1.29-.26,1.83.25,1.71,1.6l-.89.34-.75.13c-1.36.33-1.52.52-1.08,1.77,1,2.68,2.1,4.84,5.62,5,5,.2,9.06,2.81,12.75,6a12,12,0,0,1,1.95,2.64c.53.83,1,1.7,1.6,2.75.8-2.61,1.12-2.81,3.6-2.75,1.71,0,3.43.1,5.14.06,4.07-.09,7.94-.88,11.17-3.58,2-1.68,4-3.46,5.95-5.19s2.45-4.2,2.28-6.75c-.06-.9-.25-1.79-.38-2.69-.47-3.15-2.3-5.52-4.45-7.62l1.05-1.11,2.25,2.66v-1.65c.5-2.27.92-4.55,1.51-6.8s.15-2.82-1.92-3.28a5.68,5.68,0,0,1-1.51-.91c.21-.8.78-1,1.54-1a3.19,3.19,0,0,1,3.42,4c-.23,1.07-.72,2.09-1,3.16-.95,3.52-.09,6.82,1.4,10.28a18.5,18.5,0,0,0,1.57-2.51,21.28,21.28,0,0,0,1.36-10.44c-.21-2.08-.79-4.14.41-6.15a6.1,6.1,0,0,0,.4-2c1.24-6.39.54-12.38-3.58-17.7a60.94,60.94,0,0,0-12.42-11.69c-3-2.22-6.13-4.32-9.17-6.5-1.58-1.14-3-2.51-4.68-3.52-5.66-3.42-11.89-4-18.26-3.08a12.49,12.49,0,0,1-7.06-1.09c-.66-.28-1.3-.6-2-.91l-.27-.08.14.23c.17.27.32.55.51.8a64.5,64.5,0,0,1,8.55,14.82v1.52l-.31,0-.8-2.3c-1.4-2.7-2.69-5.48-4.24-8.1a58.49,58.49,0,0,0-9.14-11.6c-1.44-1.44-2.7-3.07-4-4.62l-.34,0c.12,3.41.17,6.82.39,10.22.14,2.14.54,4.26.82,6.39l.12,2c5.22.51,9.45,3,13.64,5.53.22.13.24.6.36.91-.25-.13-.5-.25-.73-.4a46.35,46.35,0,0,0-10.09-4.77,6.69,6.69,0,0,0-7.69,2.28,19.1,19.1,0,0,0-1.19,1.5c-8.14,11.4-10.17,24.22-8.75,37.82.13,1.26.75,2.47.86,3.72.34,4,.48,8,.82,12.06.16,1.94.57,3.85.86,5.78.16.44.29.89.49,1.32s.43.71.65,1.07l-3.15-.7-.18-.72,1.27-.18-1.72-1-.22-1.14-.12-.56-.35-2.42q-.25-4.8-.52-9.6c-.2-1.72-.34-3.45-.62-5.16s-.88-3.49-1-5.26A66.63,66.63,0,0,1,99.4,86.48,1.93,1.93,0,0,0,99,84.91c-1.56-1.39-3.23-2.67-4.86-4l.41-1.25c2.2-.92,4.38-1.9,6.62-2.73,2.47-.92,3.35-3.1,3.82-5.25.63-2.81-.89-5.21-2.53-7.42-.55-.77-1.17-1.5-1.65-2.32a7.56,7.56,0,0,1-.52-1.67,6.47,6.47,0,0,1,1.9-.32,26.74,26.74,0,0,1,3.12.76,29.2,29.2,0,0,0,7.89,1.4l-.81-7.46c0-2.58,0-5.16.08-7.74a15.07,15.07,0,0,1,.47-3.41c.15-.56.71-1.33,1.17-1.4a2.32,2.32,0,0,1,1.64.91c1.34,1.57,2.53,3.26,3.85,4.85a18.57,18.57,0,0,0,2,1.85,17.14,17.14,0,0,0,7.82,4.86,6,6,0,0,0,2.23.25c1.74-.18,3.46-.62,5.2-.75,7.12-.54,13.64,1,19.09,5.89a29.5,29.5,0,0,0,2.8,2.58c2.83,1.94,5.85,3.6,8.59,5.66,6.57,4.92,12.93,10.08,16.32,17.91,1.22,3.52,1.09,7.13.73,10.75-.53,2.55-1.06,5.11-1.57,7.67a7.87,7.87,0,0,0-.11,1.54c0,2.69,0,5.38,0,8.08Zm-32.68,27.05c5.67,2.25,18.65-1.33,20-5.49l-1.05.67c-2.57,1.62-5.13,3.31-8.24,3.57-2.61.21-5.23.16-7.85.17A3.3,3.3,0,0,0,149.38,143.85ZM104,62.56l3,6.2,4-4.59Zm-2.29,16.2-4.44,1.85,2.94,2.49C100.72,81.67,101.18,80.34,101.72,78.76Z" transform="translate(-51.95 -30.34)"/><path class="w" d="M183.6,86.12c-3.39-7.83-9.75-13-16.32-17.91-2.74-2.06-5.76-3.72-8.59-5.66a29.5,29.5,0,0,1-2.8-2.58c-5.45-4.92-12-6.43-19.09-5.89-1.74.13-3.46.57-5.2.75a6,6,0,0,1-2.23-.25,17.14,17.14,0,0,1-7.82-4.86A27.88,27.88,0,0,1,130,46.79,52.77,52.77,0,0,1,141.68,46a37.63,37.63,0,0,1,14.22,3.15,44.87,44.87,0,0,1,16,11.08,46.39,46.39,0,0,1,10.6,18.88c.56,2,.92,4,1.33,6A2.5,2.5,0,0,1,183.6,86.12Z" transform="translate(-51.95 -30.34)"/><path class="x" d="M170.65,53.28l-.88-.34-1.49-.87-1.15-.58-.53-.38-.91-.5-.6-.43-.84-.32-1.06-.65-.85-.35-1.05-.61-1.83-.8-1.56-.87L156.1,46c-1-.45-1.89-1-2.88-1.33a20.79,20.79,0,0,0-2.63-.55l-.48-.08-.48-.17-.48-.08-.48-.16-.48-.06-.71-.19-.73-.09a2.13,2.13,0,0,0-2.4-.37l-.72-.06-1.2-.17-1.19-.07-2.16-.19H130l-3.36.13-1.91.12-.49.12H123l-.83-.3-.61-.28-.24-1a7,7,0,0,1,1.32-1.56,22,22,0,0,1,2.9-1.36l.58-.36,4.2-1.33.6-.32.48-.08.48-.16.71-.1.49-.15.48-.06.71-.16,2.88-.34.72-.1c2.86,0,5.71.06,8.56.18a26.6,26.6,0,0,1,3.18.5l.48.14.48.07.71.19,3.13.74.61.36c1.84.6,3.73,1.1,5.52,1.83s3.59,1.7,5.38,2.56l.58.42,1.1.53.73.48,1.43.95.67.5.53.46.52.47,2.64,3.51a5.17,5.17,0,0,1-1,3.91v0Z" transform="translate(-51.95 -30.34)"/><path class="w" d="M94.09,80.92c1.63,1.32,3.3,2.6,4.86,4a1.93,1.93,0,0,1,.45,1.57,66.63,66.63,0,0,0-1.08,17.71c.13,1.77.73,3.5,1,5.26s.42,3.44.62,5.16l-.91.29c-1.18-2.52-2.49-5-3.52-7.58A35.89,35.89,0,0,1,93,96.44c-.06-.91-.19-1.82-.23-2.73A47.05,47.05,0,0,1,94.09,80.92Z" transform="translate(-51.95 -30.34)"/><path class="w" d="M102.41,64.27c1.64,2.21,3.16,4.61,2.53,7.42-.47,2.15-1.35,4.33-3.82,5.25-2.24.83-4.42,1.81-6.62,2.73a44.16,44.16,0,0,1,7-14.57A6.27,6.27,0,0,1,102.41,64.27Z" transform="translate(-51.95 -30.34)"/><path class="w" d="M112.34,54.66l.81,7.46a29.2,29.2,0,0,1-7.89-1.4Z" transform="translate(-51.95 -30.34)"/><path class="x" d="M177.8,53c0,.4,0,.79,0,1.19l-1.54,2-.62.18h-1.15l-1.07-1,1.14-3.72,1.7-.5.55.37.69.89Z" transform="translate(-51.95 -30.34)"/><path class="y" d="M176.24,56.23l1.54-2a3.78,3.78,0,0,0,.69.52,1.61,1.61,0,0,1,1.05,2.18c-.35,1.08-1.71,2.16-2.44,1.77-.4-.21-.61-.87-.8-1.36A3.51,3.51,0,0,1,176.24,56.23Z" transform="translate(-51.95 -30.34)"/><path class="y" d="M174.54,51.67l-1.14,3.72c-.05-.53-.09-1-.15-1.58,0-.28-.09-.56-.14-.84a5.17,5.17,0,0,0,1-3.91C174.27,49.93,174.41,50.8,174.54,51.67Z" transform="translate(-51.95 -30.34)"/><path class="y" d="M150.59,44.12a20.79,20.79,0,0,1,2.63.55c1,.35,1.92.88,2.88,1.33Z" transform="translate(-51.95 -30.34)"/><path class="y" d="M126.6,42.57l3.36-.13Z" transform="translate(-51.95 -30.34)"/><path class="y" d="M144.35,42.92a2.13,2.13,0,0,1,2.4.37Z" transform="translate(-51.95 -30.34)"/><path class="y" d="M170.65,53.28,173.1,53C172.36,53.76,171.57,54.09,170.65,53.28Z" transform="translate(-51.95 -30.34)"/><path class="y" d="M139.08,42.43l2.16.19Z" transform="translate(-51.95 -30.34)"/><path class="y" d="M157.9,46.58l1.56.87Z" transform="translate(-51.95 -30.34)"/><path class="y" d="M168.28,52.07l1.49.87Z" transform="translate(-51.95 -30.34)"/><path class="y" d="M142.43,42.69l1.2.17Z" transform="translate(-51.95 -30.34)"/><path class="y" d="M161.29,48.25l1.05.61Z" transform="translate(-51.95 -30.34)"/><path class="y" d="M163.19,49.21l1.06.65Z" transform="translate(-51.95 -30.34)"/><path class="y" d="M174.47,56.41h1.15C175.23,56.93,174.85,56.94,174.47,56.41Z" transform="translate(-51.95 -30.34)"/><path class="y" d="M121.33,41.25l.24,1Z" transform="translate(-51.95 -30.34)"/><path class="y" d="M151.29,36.25l-.71-.19Z" transform="translate(-51.95 -30.34)"/><path class="y" d="M147.48,43.38l.71.19Z" transform="translate(-51.95 -30.34)"/><path class="y" d="M122.18,42.5l.83.3Z" transform="translate(-51.95 -30.34)"/><path class="y" d="M134.28,35.61l-.71.16Z" transform="translate(-51.95 -30.34)"/><path class="y" d="M137.88,35.17l-.72.1Z" transform="translate(-51.95 -30.34)"/><path class="y" d="M170.44,44.62l-.67-.5Z" transform="translate(-51.95 -30.34)"/><path class="y" d="M168.34,43.17l-.73-.48Z" transform="translate(-51.95 -30.34)"/><path class="y" d="M149.63,43.87l.48.17Z" transform="translate(-51.95 -30.34)"/><path class="y" d="M148.67,43.63l.48.16Z" transform="translate(-51.95 -30.34)"/><path class="y" d="M166.51,42.16l-.58-.42Z" transform="translate(-51.95 -30.34)"/><path class="y" d="M171.49,45.55l-.52-.47Z" transform="translate(-51.95 -30.34)"/><path class="y" d="M165.09,50.18l.6.43Z" transform="translate(-51.95 -30.34)"/><path class="y" d="M126.13,38l-.58.36Z" transform="translate(-51.95 -30.34)"/><path class="y" d="M176.79,51.54l-.55-.37Z" transform="translate(-51.95 -30.34)"/><path class="y" d="M177.8,53l-.32-.58Z" transform="translate(-51.95 -30.34)"/><path class="y" d="M155,37.35l-.61-.36Z" transform="translate(-51.95 -30.34)"/><path class="y" d="M130.93,36.32l-.6.32Z" transform="translate(-51.95 -30.34)"/><path class="y" d="M131.89,36.08l-.48.16Z" transform="translate(-51.95 -30.34)"/><path class="y" d="M150.1,36l-.48-.14Z" transform="translate(-51.95 -30.34)"/><path class="y" d="M133.09,35.83l-.49.15Z" transform="translate(-51.95 -30.34)"/><path class="y" d="M124.2,42.81l.49-.12Z" transform="translate(-51.95 -30.34)"/><path class="y" d="M166.6,51.11l.53.38Z" transform="translate(-51.95 -30.34)"/><path class="v" d="M105.27,258.17l7.29.6,0,.45L100,258.65c5.31-1.42,10.36-2.32,15.48-.36C112.1,258.07,108.68,257.4,105.27,258.17Z" transform="translate(-51.95 -30.34)"/><path class="v" d="M164.74,252.59h-7.62l0-.4a34.59,34.59,0,0,1,3.52-.31c2,0,4,.1,6,.23.32,0,.61.43.91.66Z" transform="translate(-51.95 -30.34)"/><path class="z" d="M103.82,132.89c2.38,0,4.09,1.48,6,2.64,7.38,4.53,14.88,8.8,23.33,11.07l1.16.27c5.69,1.81,11.5,1.41,17.31,1,1.35-.1,2.68-.38,4-.57l.44,0c-.48.37-.92,1-1.45,1.08a60.78,60.78,0,0,1-7.3,1.23,110.29,110.29,0,0,1-11.34.49,48.45,48.45,0,0,1-20.79-5.45c-.43-.21-.87-.4-1.31-.6l-8-5.26-.06,0c-.1-.13-.2-.27-.31-.4l-5.91-5.93.23-.29Z" transform="translate(-51.95 -30.34)"/><path class="v" d="M161.92,251.55c1.23-1,7.66-.83,8.8,0Z" transform="translate(-51.95 -30.34)"/><path class="t" d="M205.49,184.91H205c-.09-.64-.17-1.28-.26-1.92a7.93,7.93,0,0,1,6.15-5.67,3.29,3.29,0,0,1,3.66,1.47c-.26,0-.52.09-.65,0-2-1.47-3.89-.75-5.64.4s-3.07,3-2.66,5.4C205.64,184.68,205.53,184.8,205.49,184.91Z" transform="translate(-51.95 -30.34)"/><path class="y" d="M101.16,128.33l1.72,1-1.27.18L96.09,128l-2-1.31.16-.37c1-.17,1.85.46,2.77.73Z" transform="translate(-51.95 -30.34)"/><path class="y" d="M100.82,126.63l.12.56L98,126.37l-6-2.55.21-.53,6.33,2.54Z" transform="translate(-51.95 -30.34)"/><path class="c" d="M98,126.37l2.92.82c.07.38.15.76.22,1.14L97,127.05Z" transform="translate(-51.95 -30.34)"/><path class="aa" d="M100.82,126.63l-2.27-.8,1.92-1.62C100.59,125,100.7,125.82,100.82,126.63Z" transform="translate(-51.95 -30.34)"/><path class="h" d="M115.53,155.23v2.06h-.35a2,2,0,0,1,0-2.07Z" transform="translate(-51.95 -30.34)"/><path class="y" d="M101.79,130.26l3.15.7h0c.25,1.17.05,1.39-1.14,1.25-.23,0-.47,0-.7,0-1.24-.28-2.47-.55-3.7-.86a4,4,0,0,1-1.32-.52,5.4,5.4,0,0,1-.85-1,3.69,3.69,0,0,1,1.3-.27C99.64,129.73,100.71,130,101.79,130.26Z" transform="translate(-51.95 -30.34)"/><path class="i" d="M105.49,138.43c.11.13.21.27.31.4C105.7,138.7,105.6,138.56,105.49,138.43Z" transform="translate(-51.95 -30.34)"/><path class="ab" d="M172.36,103.87a5.68,5.68,0,0,0,1.51.91c2.07.46,2.46,1.18,1.92,3.28s-1,4.53-1.51,6.8c-1.39-1-2.72-2.18-4.2-3.09a4.71,4.71,0,0,0-5.19-.32c1,.72,1.82,1.37,2.69,2a19.91,19.91,0,0,1,7.47,8.77c.06.16.25.26.38.39.13.9.32,1.79.38,2.69.17,2.55-.2,5-2.28,6.75s-3.93,3.51-5.95,5.19c-3.23,2.7-7.1,3.49-11.17,3.58-1.71,0-3.43,0-5.14-.06-2.48-.06-2.8.14-3.6,2.75-.61-1-1.07-1.92-1.6-2.75a12,12,0,0,0-1.95-2.64c-3.69-3.14-7.78-5.75-12.75-6-3.52-.14-4.67-2.3-5.62-5-.44-1.25-.28-1.44,1.08-1.77l.75-.13.89-.34c.87,0,.93-.7.73-1.16a2.42,2.42,0,0,0-1.2-1.37,4,4,0,0,0-5,3.84,7.49,7.49,0,0,0,2,5.21c1.63,1.88,3.88,2.88,5.92,4.19,1.85,1.18,1.51,2.08,1,3.56a2.83,2.83,0,0,1-3.55,1.42,51.37,51.37,0,0,1-10.8-6.57c-1-.74-1.83-1.79-2.93-2.17-3.57-1.23-7.22-2.22-10.85-3.3-.29-1.93-.7-3.84-.86-5.78-.34-4-.48-8-.82-12.06-.11-1.25-.73-2.46-.86-3.72-1.42-13.6.61-26.42,8.75-37.82a19.1,19.1,0,0,1,1.19-1.5,6.69,6.69,0,0,1,7.69-2.28A46.35,46.35,0,0,1,129,70.18c.23.15.48.27.73.4a15.2,15.2,0,0,0,1.12,1.15c1,.83,2,1.65,3.08,2.4.22.16.65,0,1,.05a4.27,4.27,0,0,0-.08-.89,16.67,16.67,0,0,0-.83-2.1c-.13-.27-.47-.43-.72-.64a64.5,64.5,0,0,0-8.55-14.82c-.19-.25-.34-.53-.51-.8a.47.47,0,0,0,.13-.15c.65.31,1.29.63,2,.91a12.49,12.49,0,0,0,7.06,1.09c6.37-1,12.6-.34,18.26,3.08,1.66,1,3.1,2.38,4.68,3.52,3,2.18,6.15,4.28,9.17,6.5a60.94,60.94,0,0,1,12.42,11.69c4.12,5.32,4.82,11.31,3.58,17.7a6,6,0,0,0-.79.81c-.77,1.08-1.5,2.19-2.36,3.48a18.56,18.56,0,0,0-1.47-1.62,4.64,4.64,0,0,0-4.6-1.27,1.56,1.56,0,0,0-1.23,1.68C171,103.16,171.39,103.82,172.36,103.87Zm-3.25,24.47.19-.75,0-.45c.69-.89.6-3.8-.15-4.53a1.41,1.41,0,0,0-2.26.07,3.33,3.33,0,0,0-.72,1.8,19.89,19.89,0,0,0,.27,4c.1.55.71,1,1.09,1.51l.4,1.88.32,0Zm-16.88,4.79a14.11,14.11,0,0,0,1.59.72c1.79.54,3.59,1,5.5,1.56L158,133.8c-.29-3-4.33-5.17-7-3.68a1.37,1.37,0,0,0-.28,2.28A8,8,0,0,0,152.23,133.13Zm17.89-36.44A7.2,7.2,0,0,0,171.21,95a16.51,16.51,0,0,0,.31-8.46A26,26,0,0,0,163.71,73a4.87,4.87,0,0,0-3.52-1.5,7.29,7.29,0,0,0-.5-1.56c-.11-.19-.6-.17-.92-.24a4.43,4.43,0,0,0-.07.81c0,.34.23.68.18,1-.92,6.83-1.82,13.67-2.82,20.49a50.6,50.6,0,0,1-1.32,5.19l-.46,0c-.71-1.19-1.4-2.39-2.14-3.55-.39-.62-.88-1.19-1.32-1.78a7.47,7.47,0,0,0-.62-1.76,1.48,1.48,0,0,0-1.18-.51c-.22,0-.48.6-.57,1a1.81,1.81,0,0,0,.09,1,58.42,58.42,0,0,0,2.67,6c1.27,2.23,3.07,2.67,5.34,1.7a37.75,37.75,0,0,0,3,3.5c3.29,3,7.74,2.56,9.41-2.22C169.45,99.31,169.75,98,170.12,96.69Zm-47.81,23.78a7.94,7.94,0,0,0,6.47-2.2,10.16,10.16,0,0,0,3.25-6c.25-1.73.43-3.47.64-5.21.3.09.61.16.91.27,2.46.94,4.74-.49,4.48-3.08a40.65,40.65,0,0,0-1.55-6.43,2.26,2.26,0,0,0-1-1.16,1.36,1.36,0,0,0-1.19-.09,1.29,1.29,0,0,0-.5,1.07,10,10,0,0,0,.63,1.87c.36,2,.72,4.09,1.11,6.38-1.25-.52-2.17-1-3.14-1.28q-13.58-4.34-27.2-8.58c-.38-.12-.9.2-1.36.31.21.39.4.79.64,1.15.11.15.33.22.49.33a15.55,15.55,0,0,0,.86,10.25c2.85,6.88,8.29,10.57,15.08,12.68C121.35,120.88,121.86,120.58,122.31,120.47Z" transform="translate(-51.95 -30.34)"/><path class="e" d="M103.8,128.57c3.63,1.08,7.28,2.07,10.85,3.3,1.1.38,2,1.43,2.93,2.17a51.37,51.37,0,0,0,10.8,6.57,2.83,2.83,0,0,0,3.55-1.42c.55-1.48.89-2.38-1-3.56-2-1.31-4.29-2.31-5.92-4.19a7.49,7.49,0,0,1-2-5.21,4,4,0,0,1,5-3.84,2.42,2.42,0,0,1,1.2,1.37c.2.46.14,1.18-.73,1.16.12-1.35-.42-1.86-1.71-1.6a3.18,3.18,0,0,0-2.56,4.29c1,3.25,3.44,5.45,6,5.78a31,31,0,0,1,6.26,1.34c2.89,1,5.62,2.36,7.14,5.26.38.73.68,1.5,1.16,2.56a37.35,37.35,0,0,0-3.58-1.31,1.86,1.86,0,0,0-1.55.31c-2.15,2.52-4.86,3-7.93,2.45a47,47,0,0,1-14.32-5.61c-3.85-2.18-7.55-4.63-11.33-6.95A8.8,8.8,0,0,0,105,131h0c-.22-.36-.47-.7-.65-1.07S104,129,103.8,128.57Z" transform="translate(-51.95 -30.34)"/><path class="ab" d="M115.59,62.11c-.28-2.13-.68-4.25-.82-6.39-.22-3.4-.27-6.81-.39-10.22l.34,0c1.35,1.55,2.61,3.18,4,4.62a58.49,58.49,0,0,1,9.14,11.6c1.55,2.62,2.84,5.4,4.24,8.1-1-.77-2-1.53-2.94-2.34C125.26,64.17,120.93,61.85,115.59,62.11Z" transform="translate(-51.95 -30.34)"/><path class="e" d="M172.36,103.87c-1-.05-1.32-.71-1.36-1.52a1.56,1.56,0,0,1,1.23-1.68,4.64,4.64,0,0,1,4.6,1.27,18.56,18.56,0,0,1,1.47,1.62c.86-1.29,1.59-2.4,2.36-3.48a6,6,0,0,1,.79-.81,6.1,6.1,0,0,1-.4,2c-1.2,2-.62,4.07-.41,6.15a21.28,21.28,0,0,1-1.36,10.44,18.5,18.5,0,0,1-1.57,2.51c-1.49-3.46-2.35-6.76-1.4-10.28.29-1.07.78-2.09,1-3.16a3.19,3.19,0,0,0-3.42-4C173.14,102.85,172.57,103.07,172.36,103.87Z" transform="translate(-51.95 -30.34)"/><path class="e" d="M115.59,62.11c5.34-.26,9.67,2.06,13.62,5.35,1,.81,2,1.57,2.94,2.34.27.77.53,1.54.8,2.3l.31,0V70.55c.25.21.59.37.72.64a16.67,16.67,0,0,1,.83,2.1,4.27,4.27,0,0,1,.08.89c-.33,0-.76.11-1-.05-1.06-.75-2.07-1.57-3.08-2.4a15.2,15.2,0,0,1-1.12-1.15c-.12-.31-.14-.78-.36-.91-4.19-2.55-8.42-5-13.64-5.53Z" transform="translate(-51.95 -30.34)"/><path class="p" d="M155.62,147.28c-1.34.19-2.67.47-4,.57-5.81.43-11.62.83-17.31-1a7.57,7.57,0,0,0,5.88-2.46c.59-.65,1.09-.38,1.71-.2,3.07.92,6.14,1.91,9.25,2.68A27.76,27.76,0,0,0,155.62,147.28Z" transform="translate(-51.95 -30.34)"/><path class="e" d="M175.43,122.58c-.13-.13-.32-.23-.38-.39a19.91,19.91,0,0,0-7.47-8.77c-.87-.6-1.71-1.25-2.69-2a4.71,4.71,0,0,1,5.19.32c1.48.91,2.81,2,4.2,3.09v1.65L172,113.85,171,115C173.13,117.06,175,119.43,175.43,122.58Z" transform="translate(-51.95 -30.34)"/><path class="e" d="M149.38,143.85a3.3,3.3,0,0,1,2.85-1.08c2.62,0,5.24,0,7.85-.17,3.11-.26,5.67-1.95,8.24-3.57l1.05-.67C168,142.52,155.05,146.1,149.38,143.85Z" transform="translate(-51.95 -30.34)"/><path class="o" d="M104,62.56l7,1.61-4,4.59Z" transform="translate(-51.95 -30.34)"/><path class="o" d="M101.72,78.76c-.54,1.58-1,2.91-1.5,4.34l-2.94-2.49Z" transform="translate(-51.95 -30.34)"/><path class="e" d="M127.58,125.26l-.75.13Z" transform="translate(-51.95 -30.34)"/><path class="ab" d="M124.2,54.93l-.14-.23.27.08A.47.47,0,0,1,124.2,54.93Z" transform="translate(-51.95 -30.34)"/><path class="a" d="M105,97.84c-.16-.11-.38-.18-.49-.33-.24-.36-.43-.76-.64-1.15.46-.11,1-.43,1.36-.31q13.62,4.23,27.2,8.58c1,.31,1.89.76,3.14,1.28l-1.11-6.38c1.55,1.89,1.65,4.15,1.58,6.42,0,.64-.51.79-1.13.55s-1.46-.47-2.27-.72v1.3c-.21,1.74-.39,3.48-.64,5.21a10.16,10.16,0,0,1-3.25,6,7.94,7.94,0,0,1-6.47,2.2,20.17,20.17,0,0,1-2.17-.67,18.37,18.37,0,0,1-10.27-11.61,45.31,45.31,0,0,1-1.44-7.65c-.12-.83.44-.5.82-.24a49.43,49.43,0,0,0,.47,5.46,15,15,0,0,0,8.87,11c2.93,1.39,5.85,1.74,8.66-.48,3.2-2.53,4-6,4.07-9.82,0-.45-.23-1.21-.53-1.32-1.73-.61-3.5-1.06-5-1.48-.3,2.16-.46,4.23-.91,6.24-.31,1.41-.84,1.47-2.16.78a17,17,0,0,1-5-4.7,1.88,1.88,0,0,0,.75-2.56c-.34-.56-1.35-.72-2.07-1a1.45,1.45,0,0,0-.59,0c-.15-.4-.28-.81-.45-1.21s-.23-.7-.42-.75c-1.87-.49-3.76-.9-5.64-1.34Z" transform="translate(-51.95 -30.34)"/><path class="v" d="M150.82,91.81c.44.59.93,1.16,1.32,1.78.74,1.16,1.43,2.36,2.14,3.55l.46,0A50.6,50.6,0,0,0,156.06,92c1-6.82,1.9-13.66,2.82-20.49.05-.32-.15-.66-.18-1a4.43,4.43,0,0,1,.07-.81c.32.07.81,0,.92.24a7.29,7.29,0,0,1,.5,1.56L160,73.91c-.08,1.06-.08,2.13-.25,3.18a4.71,4.71,0,0,0,.9,3.74c-.4.53-.79,1.06-1.2,1.58a2.11,2.11,0,0,0,.22,2.81c.85.74,1.6.42,2.26-.34a1.36,1.36,0,0,1,.39-.22,20.53,20.53,0,0,1,.45,9.35c-.21,1.23-.55,1.44-1.71.88-1.31-.64-2.51-1.47-3.73-2.2-.22.81-.51,1.76-.74,2.72a1.65,1.65,0,0,0,0,.91,11,11,0,0,0,3.66,5.29c2.19,1.7,4.5,1.55,6.22-.52a6.39,6.39,0,0,0,1.12-2.35,23.77,23.77,0,0,0-3.35-20.58c.15-.84.52-.38.71-.08a60.89,60.89,0,0,1,3.28,5.23c2.16,4.22,2.4,8.76,1.86,13.38-.37,1.3-.67,2.62-1.12,3.9-1.67,4.78-6.12,5.18-9.41,2.22a37.75,37.75,0,0,1-3-3.5l-1.09-1.67-.16.31c-.47-.11-1.21-.07-1.38-.36C152.82,95.7,151.84,93.75,150.82,91.81Z" transform="translate(-51.95 -30.34)"/><path class="e" d="M109.25,100.3c-.38-.26-.94-.59-.82.24a45.31,45.31,0,0,0,1.44,7.65,18.37,18.37,0,0,0,10.27,11.61,20.17,20.17,0,0,0,2.17.67c-.45.11-1,.41-1.34.3-6.79-2.11-12.23-5.8-15.08-12.68A15.55,15.55,0,0,1,105,97.84l4.32,1.24C109.32,99.49,109.28,99.89,109.25,100.3Z" transform="translate(-51.95 -30.34)"/><path class="e" d="M160,73.91l.18-2.44a4.87,4.87,0,0,1,3.52,1.5,26,26,0,0,1,7.81,13.52,16.51,16.51,0,0,1-.31,8.46,7.2,7.2,0,0,1-1.09,1.74c.54-4.62.3-9.16-1.86-13.38A60.89,60.89,0,0,0,165,78.08c-.19-.3-.56-.76-.71.08-1.1-1.23-2.2-2.46-3.33-3.66A4.2,4.2,0,0,0,160,73.91Z" transform="translate(-51.95 -30.34)"/><path class="e" d="M132.67,107.08v-1.3c.81.25,1.55.45,2.27.72s1.11.09,1.13-.55c.07-2.27,0-4.53-1.58-6.42a10,10,0,0,1-.63-1.87,1.29,1.29,0,0,1,.5-1.07,1.36,1.36,0,0,1,1.19.09,2.26,2.26,0,0,1,1,1.16,40.65,40.65,0,0,1,1.55,6.43c.26,2.59-2,4-4.48,3.08C133.28,107.24,133,107.17,132.67,107.08Z" transform="translate(-51.95 -30.34)"/><path class="e" d="M150.82,91.81c1,1.94,2,3.89,3.1,5.78.17.29.91.25,1.38.36l.16-.31,1.09,1.67c-2.27,1-4.07.53-5.34-1.7a58.42,58.42,0,0,1-2.67-6,1.81,1.81,0,0,1-.09-1c.09-.37.35-1,.57-1a1.48,1.48,0,0,1,1.18.51A7.47,7.47,0,0,1,150.82,91.81Z" transform="translate(-51.95 -30.34)"/><path class="t" d="M158,133.8l1.29,1.61c-1.91-.54-3.71-1-5.5-1.56a14.11,14.11,0,0,1-1.59-.72c0-.67-.21-1.54.12-1.95.61-.74,1.5-.46,2.24.09C155.73,132.12,156.88,133,158,133.8Z" transform="translate(-51.95 -30.34)"/><path class="t" d="M169.35,127.14l0,.45-.19.75-.81,3.58-.32,0-.4-1.88c0-.43,0-.87-.05-1.3-.13-1.37-.28-2.74-.4-4.11a1.07,1.07,0,0,1,1.05-1.3c.86-.08,1.06.59,1.12,1.24C169.36,125.39,169.33,126.27,169.35,127.14Z" transform="translate(-51.95 -30.34)"/><path class="e" d="M158,133.8c-1.15-.84-2.3-1.68-3.44-2.53-.74-.55-1.63-.83-2.24-.09-.33.41-.1,1.28-.12,1.95a8,8,0,0,1-1.46-.73,1.37,1.37,0,0,1,.28-2.28C153.7,128.63,157.74,130.76,158,133.8Z" transform="translate(-51.95 -30.34)"/><path class="e" d="M169.35,127.14c0-.87,0-1.75,0-2.61-.06-.65-.26-1.32-1.12-1.24a1.07,1.07,0,0,0-1.05,1.3c.12,1.37.27,2.74.4,4.11,0,.43,0,.87.05,1.3-.38-.5-1-1-1.09-1.51a19.89,19.89,0,0,1-.27-4,3.33,3.33,0,0,1,.72-1.8,1.41,1.41,0,0,1,2.26-.07C170,123.34,170,126.25,169.35,127.14Z" transform="translate(-51.95 -30.34)"/><path class="e" d="M169.11,128.34l.19-.75Z" transform="translate(-51.95 -30.34)"/><path class="ac" d="M109.25,100.3c0-.41.07-.81.1-1.22,1.88.44,3.77.85,5.64,1.34.19,0,.31.48.42.75s.3.81.45,1.21a12.26,12.26,0,0,0-2.45.33,1.88,1.88,0,0,0-1.14,1.15c-.43,1.83.19,2.6,2.12,2.6a24.31,24.31,0,0,0,3.38-.47,17,17,0,0,0,5,4.7c1.32.69,1.85.63,2.16-.78.45-2,.61-4.08.91-6.24,1.46.42,3.23.87,5,1.48.3.11.55.87.53,1.32-.11,3.78-.87,7.29-4.07,9.82-2.81,2.22-5.73,1.87-8.66.48a15,15,0,0,1-8.87-11A49.43,49.43,0,0,1,109.25,100.3Z" transform="translate(-51.95 -30.34)"/><path class="u" d="M117.77,106a24.31,24.31,0,0,1-3.38.47c-1.93,0-2.55-.77-2.12-2.6a1.88,1.88,0,0,1,1.14-1.15,12.26,12.26,0,0,1,2.45-.33,1.45,1.45,0,0,1,.59,0c.72.31,1.73.47,2.07,1A1.88,1.88,0,0,1,117.77,106Z" transform="translate(-51.95 -30.34)"/><path class="ac" d="M160,73.91a4.2,4.2,0,0,1,.93.59c1.13,1.2,2.23,2.43,3.33,3.66a23.77,23.77,0,0,1,3.35,20.58,6.39,6.39,0,0,1-1.12,2.35c-1.72,2.07-4,2.22-6.22.52a11,11,0,0,1-3.66-5.29,1.65,1.65,0,0,1,0-.91c.23-1,.52-1.91.74-2.72,1.22.73,2.42,1.56,3.73,2.2,1.16.56,1.5.35,1.71-.88a20.53,20.53,0,0,0-.45-9.35c.33-.33.65-.68,1-1a1.64,1.64,0,0,0,.16-2.55,2,2,0,0,0-2.83-.3,4.71,4.71,0,0,1-.9-3.74C159.93,76,159.93,75,160,73.91Z" transform="translate(-51.95 -30.34)"/><path class="u" d="M160.66,80.83a2,2,0,0,1,2.83.3,1.64,1.64,0,0,1-.16,2.55c-.35.3-.67.65-1,1a1.36,1.36,0,0,0-.39.22c-.66.76-1.41,1.08-2.26.34a2.11,2.11,0,0,1-.22-2.81C159.87,81.89,160.26,81.36,160.66,80.83Z" transform="translate(-51.95 -30.34)"/></svg>
